<svg width="194" height="194" viewBox="0 0 194 194" fill="none" xmlns="http://www.w3.org/2000/svg">
<path fill-rule="evenodd" clip-rule="evenodd" d="M93.7447 0.943981C91.1215 1.8527 88.9464 3.65292 83.4114 9.49503C80.5918 12.4711 77.716 15.2575 77.0209 15.6873C74.9326 16.9776 72.2203 16.7075 65.5899 14.5496C59.7557 12.6507 56.4942 11.8991 54.0883 11.8991C51.7669 11.8991 49.0561 12.9342 47.278 14.4991C44.807 16.6742 43.5324 19.6922 41.7894 27.495C40.2361 34.4497 39.3274 37.1044 38.1444 38.1429C36.9009 39.235 34.5911 39.9809 27.8534 41.4677C20.0939 43.1796 16.9851 44.4935 14.7887 46.9884C11.354 50.8908 11.3929 54.7912 14.9769 65.7572C16.8111 71.3696 17.1628 74.5978 16.1523 76.5514C15.8631 77.1107 12.993 80.0725 9.77373 83.1331C3.41983 89.1746 2.16843 90.7216 1.16357 93.7766C0.290397 96.4313 0.548909 98.8039 2.04236 101.838C3.04049 103.865 4.22492 105.2 9.42843 110.164C12.8369 113.415 15.8628 116.533 16.1519 117.092C17.1628 119.047 16.8115 122.274 14.9769 127.887C12.1366 136.578 11.706 139.58 12.7808 143.199C13.5758 145.877 16.3775 148.671 19.4864 149.888C20.7195 150.371 24.5919 151.411 28.0913 152.201C34.7737 153.708 37.4074 154.622 38.4325 155.79C39.5137 157.021 40.2566 159.316 41.7864 166.149C43.5331 173.952 44.8092 176.972 47.278 179.145C51.1874 182.586 55.0748 182.543 66.1133 178.935C71.6576 177.123 74.7957 176.726 76.5566 177.613C77.0594 177.865 80.3329 180.998 83.8308 184.574C89.1005 189.961 90.5753 191.254 92.4354 192.116C95.6868 193.622 98.7099 193.574 101.983 191.962C104.404 190.77 105.802 189.481 113.6 181.242C115.128 179.627 116.878 178.047 117.489 177.73C119.43 176.721 122.348 177.052 128.11 178.935C139.149 182.543 143.036 182.586 146.946 179.145C149.417 176.97 150.691 173.952 152.434 166.149C153.986 159.201 154.894 156.547 156.079 155.494C157.041 154.639 160.063 153.492 162.768 152.957C172.951 150.94 177.017 149.403 179.435 146.656C182.875 142.748 182.832 138.858 179.228 127.83C177.332 122.029 176.995 119.115 178.001 117.211C178.327 116.594 181.382 113.429 184.79 110.177C190.07 105.14 191.167 103.897 192.216 101.768C193.935 98.2745 193.943 95.3852 192.241 91.9288C191.042 89.4941 189.614 87.9434 181.736 80.5285C180.234 79.1152 178.659 77.398 178.235 76.7126C176.983 74.6868 177.239 71.9004 179.238 65.7837C182.841 54.7579 182.876 50.8971 179.404 46.9536C177.301 44.5645 174.14 43.1699 167.699 41.7901C161.03 40.361 157.58 39.3154 156.355 38.3524C155.095 37.361 154.075 34.9226 153.194 30.7917C150.893 20.012 149.713 16.9353 146.946 14.4991C143.041 11.0618 139.145 11.1026 128.15 14.6959C122.034 16.6952 119.247 16.9507 117.221 15.6985C116.536 15.275 114.817 13.7 113.402 12.198C104.723 2.98999 103.602 2.02366 100.319 0.920786C98.0676 0.164708 95.9722 0.17219 93.7447 0.943981Z" fill="#FE306B"/>
<mask id="mask0_1_448" style="mask-type:alpha" maskUnits="userSpaceOnUse" x="0" y="0" width="194" height="194">
<path fill-rule="evenodd" clip-rule="evenodd" d="M93.7447 0.943981C91.1215 1.8527 88.9464 3.65292 83.4114 9.49503C80.5918 12.4711 77.716 15.2575 77.0209 15.6873C74.9326 16.9776 72.2203 16.7075 65.5899 14.5496C59.7557 12.6507 56.4942 11.8991 54.0883 11.8991C51.7669 11.8991 49.0561 12.9342 47.278 14.4991C44.807 16.6742 43.5324 19.6922 41.7894 27.495C40.2361 34.4497 39.3274 37.1044 38.1444 38.1429C36.9009 39.235 34.5911 39.9809 27.8534 41.4677C20.0939 43.1796 16.9851 44.4935 14.7887 46.9884C11.354 50.8908 11.3929 54.7912 14.9769 65.7572C16.8111 71.3696 17.1628 74.5978 16.1523 76.5514C15.8631 77.1107 12.993 80.0725 9.77373 83.1331C3.41983 89.1746 2.16843 90.7216 1.16357 93.7766C0.290397 96.4313 0.548909 98.8039 2.04236 101.838C3.04049 103.865 4.22492 105.2 9.42843 110.164C12.8369 113.415 15.8628 116.533 16.1519 117.092C17.1628 119.047 16.8115 122.274 14.9769 127.887C12.1366 136.578 11.706 139.58 12.7808 143.199C13.5758 145.877 16.3775 148.671 19.4864 149.888C20.7195 150.371 24.5919 151.411 28.0913 152.201C34.7737 153.708 37.4074 154.622 38.4325 155.79C39.5137 157.021 40.2566 159.316 41.7864 166.149C43.5331 173.952 44.8092 176.972 47.278 179.145C51.1874 182.586 55.0748 182.543 66.1133 178.935C71.6576 177.123 74.7957 176.726 76.5566 177.613C77.0594 177.865 80.3329 180.998 83.8308 184.574C89.1005 189.961 90.5753 191.254 92.4354 192.116C95.6868 193.622 98.7099 193.574 101.983 191.962C104.404 190.77 105.802 189.481 113.6 181.242C115.128 179.627 116.878 178.047 117.489 177.73C119.43 176.721 122.348 177.052 128.11 178.935C139.149 182.543 143.036 182.586 146.946 179.145C149.417 176.97 150.691 173.952 152.434 166.149C153.986 159.201 154.894 156.547 156.079 155.494C157.041 154.639 160.063 153.492 162.768 152.957C172.951 150.94 177.017 149.403 179.435 146.656C182.875 142.748 182.832 138.858 179.228 127.83C177.332 122.029 176.995 119.115 178.001 117.211C178.327 116.594 181.382 113.429 184.79 110.177C190.07 105.14 191.167 103.897 192.216 101.768C193.935 98.2745 193.943 95.3852 192.241 91.9288C191.042 89.4941 189.614 87.9434 181.736 80.5285C180.234 79.1152 178.659 77.398 178.235 76.7126C176.983 74.6868 177.239 71.9004 179.238 65.7837C182.841 54.7579 182.876 50.8971 179.404 46.9536C177.301 44.5645 174.14 43.1699 167.699 41.7901C161.03 40.361 157.58 39.3154 156.355 38.3524C155.095 37.361 154.075 34.9226 153.194 30.7917C150.893 20.012 149.713 16.9353 146.946 14.4991C143.041 11.0618 139.145 11.1026 128.15 14.6959C122.034 16.6952 119.247 16.9507 117.221 15.6985C116.536 15.275 114.817 13.7 113.402 12.198C104.723 2.98999 103.602 2.02366 100.319 0.920786C98.0676 0.164708 95.9722 0.17219 93.7447 0.943981Z" fill="#FE306B"/>
</mask>
<g mask="url(#mask0_1_448)">
<path d="M29.9893 123.285V83.9223L20.6991 89.634V79.3116L29.9893 73.7375H39.5547V123.285H29.9893ZM71.0107 124.317C67.3405 124.317 64.1291 123.549 61.3765 122.012C58.6238 120.475 56.479 118.33 54.9421 115.578C53.4052 112.825 52.6368 109.614 52.6368 105.943V91.0792C52.6368 87.409 53.4052 84.1976 54.9421 81.4449C56.479 78.6923 58.6238 76.5475 61.3765 75.0106C64.1291 73.4737 67.3405 72.7053 71.0107 72.7053C74.6809 72.7053 77.8923 73.4737 80.645 75.0106C83.3976 76.5475 85.5424 78.6923 87.0793 81.4449C88.6162 84.1976 89.3846 87.409 89.3846 91.0792V105.943C89.3846 109.614 88.6162 112.825 87.0793 115.578C85.5424 118.33 83.3976 120.475 80.645 122.012C77.8923 123.549 74.6809 124.317 71.0107 124.317ZM71.0107 115.44C72.6623 115.44 74.1533 115.05 75.4838 114.27C76.8142 113.49 77.8694 112.435 78.6493 111.105C79.4292 109.774 79.8192 108.283 79.8192 106.632V90.3222C79.8192 88.6706 79.4292 87.1796 78.6493 85.8492C77.8694 84.5187 76.8142 83.4635 75.4838 82.6836C74.1533 81.9037 72.6623 81.5137 71.0107 81.5137C69.3591 81.5137 67.8681 81.9037 66.5377 82.6836C65.2072 83.4635 64.152 84.5187 63.3721 85.8492C62.5922 87.1796 62.2022 88.6706 62.2022 90.3222V106.632C62.2022 108.283 62.5922 109.774 63.3721 111.105C64.152 112.435 65.2072 113.49 66.5377 114.27C67.8681 115.05 69.3591 115.44 71.0107 115.44ZM117.381 124.317C113.711 124.317 110.499 123.549 107.747 122.012C104.994 120.475 102.849 118.33 101.312 115.578C99.7755 112.825 99.0071 109.614 99.0071 105.943V91.0792C99.0071 87.409 99.7755 84.1976 101.312 81.4449C102.849 78.6923 104.994 76.5475 107.747 75.0106C110.499 73.4737 113.711 72.7053 117.381 72.7053C121.051 72.7053 124.263 73.4737 127.015 75.0106C129.768 76.5475 131.913 78.6923 133.45 81.4449C134.986 84.1976 135.755 87.409 135.755 91.0792V105.943C135.755 109.614 134.986 112.825 133.45 115.578C131.913 118.33 129.768 120.475 127.015 122.012C124.263 123.549 121.051 124.317 117.381 124.317ZM117.381 115.44C119.033 115.44 120.524 115.05 121.854 114.27C123.184 113.49 124.24 112.435 125.02 111.105C125.8 109.774 126.189 108.283 126.189 106.632V90.3222C126.189 88.6706 125.8 87.1796 125.02 85.8492C124.24 84.5187 123.184 83.4635 121.854 82.6836C120.524 81.9037 119.033 81.5137 117.381 81.5137C115.729 81.5137 114.238 81.9037 112.908 82.6836C111.577 83.4635 110.522 84.5187 109.742 85.8492C108.962 87.1796 108.573 88.6706 108.573 90.3222V106.632C108.573 108.283 108.962 109.774 109.742 111.105C110.522 112.435 111.577 113.49 112.908 114.27C114.238 115.05 115.729 115.44 117.381 115.44ZM152.947 123.285L146.754 117.092L190.108 73.7375L196.301 79.9998L152.947 123.285ZM185.979 124.317C183.708 124.317 181.632 123.767 179.751 122.666C177.893 121.542 176.402 120.051 175.278 118.193C174.154 116.312 173.592 114.224 173.592 111.93C173.592 109.682 174.165 107.618 175.312 105.737C176.459 103.856 177.973 102.354 179.854 101.23C181.735 100.106 183.777 99.5436 185.979 99.5436C188.25 99.5436 190.326 100.106 192.207 101.23C194.088 102.331 195.579 103.822 196.68 105.703C197.804 107.561 198.366 109.637 198.366 111.93C198.366 114.224 197.804 116.312 196.68 118.193C195.579 120.051 194.088 121.542 192.207 122.666C190.326 123.767 188.25 124.317 185.979 124.317ZM185.979 116.404C186.782 116.404 187.516 116.197 188.181 115.784C188.869 115.371 189.42 114.832 189.833 114.167C190.246 113.479 190.452 112.733 190.452 111.93C190.452 111.128 190.246 110.394 189.833 109.728C189.42 109.04 188.869 108.49 188.181 108.077C187.516 107.664 186.782 107.457 185.979 107.457C185.176 107.457 184.431 107.664 183.742 108.077C183.077 108.49 182.538 109.04 182.125 109.728C181.712 110.394 181.506 111.128 181.506 111.93C181.506 112.733 181.712 113.479 182.125 114.167C182.538 114.832 183.077 115.371 183.742 115.784C184.431 116.197 185.176 116.404 185.979 116.404ZM157.076 97.4791C154.805 97.4791 152.729 96.9286 150.848 95.8275C148.967 94.7035 147.465 93.2125 146.341 91.3544C145.24 89.4735 144.689 87.3861 144.689 85.0922C144.689 82.8442 145.263 80.7797 146.41 78.8987C147.557 77.0177 149.07 75.5153 150.951 74.3913C152.832 73.2673 154.874 72.7053 157.076 72.7053C159.347 72.7053 161.412 73.2673 163.27 74.3913C165.151 75.4923 166.653 76.9833 167.777 78.8643C168.901 80.7223 169.463 82.7983 169.463 85.0922C169.463 87.3861 168.901 89.4735 167.777 91.3544C166.653 93.2125 165.151 94.7035 163.27 95.8275C161.412 96.9286 159.347 97.4791 157.076 97.4791ZM157.076 89.5652C157.879 89.5652 158.613 89.3588 159.278 88.9459C159.966 88.533 160.517 87.9939 160.93 87.3287C161.343 86.6405 161.549 85.895 161.549 85.0922C161.549 84.2893 161.343 83.5553 160.93 82.8901C160.517 82.2019 159.966 81.6514 159.278 81.2385C158.613 80.8256 157.879 80.6191 157.076 80.6191C156.273 80.6191 155.528 80.8256 154.84 81.2385C154.174 81.6514 153.635 82.2019 153.222 82.8901C152.809 83.5553 152.603 84.2893 152.603 85.0922C152.603 85.895 152.809 86.6405 153.222 87.3287C153.635 87.9939 154.174 88.533 154.84 88.9459C155.528 89.3588 156.273 89.5652 157.076 89.5652Z" fill="#DF1E55"/>
</g>
<path d="M77.5014 90.7852V79.3012L75.0624 80.7682V79.2832L77.5014 77.8252H78.8424V90.7852H77.5014ZM86.4861 91.0552C85.6881 91.0552 84.9681 90.8692 84.3261 90.4972C83.6901 90.1252 83.1861 89.6212 82.8141 88.9852C82.4421 88.3432 82.2561 87.6232 82.2561 86.8252V81.7852C82.2561 80.9872 82.4421 80.2702 82.8141 79.6342C83.1861 78.9922 83.6901 78.4852 84.3261 78.1132C84.9681 77.7412 85.6881 77.5552 86.4861 77.5552C87.2841 77.5552 88.0011 77.7412 88.6371 78.1132C89.2791 78.4852 89.7861 78.9922 90.1581 79.6342C90.5301 80.2702 90.7161 80.9872 90.7161 81.7852V86.8252C90.7161 87.6232 90.5301 88.3432 90.1581 88.9852C89.7861 89.6212 89.2791 90.1252 88.6371 90.4972C88.0011 90.8692 87.2841 91.0552 86.4861 91.0552ZM86.4861 89.7772C87.0201 89.7772 87.5061 89.6482 87.9441 89.3902C88.3821 89.1262 88.7301 88.7752 88.9881 88.3372C89.2461 87.8992 89.3751 87.4162 89.3751 86.8882V81.7222C89.3751 81.1882 89.2461 80.7022 88.9881 80.2642C88.7301 79.8262 88.3821 79.4782 87.9441 79.2202C87.5061 78.9562 87.0201 78.8242 86.4861 78.8242C85.9521 78.8242 85.4661 78.9562 85.0281 79.2202C84.5901 79.4782 84.2421 79.8262 83.9841 80.2642C83.7261 80.7022 83.5971 81.1882 83.5971 81.7222V86.8882C83.5971 87.4162 83.7261 87.8992 83.9841 88.3372C84.2421 88.7752 84.5901 89.1262 85.0281 89.3902C85.4661 89.6482 85.9521 89.7772 86.4861 89.7772ZM97.4724 91.0552C96.6744 91.0552 95.9544 90.8692 95.3124 90.4972C94.6764 90.1252 94.1724 89.6212 93.8004 88.9852C93.4284 88.3432 93.2424 87.6232 93.2424 86.8252V81.7852C93.2424 80.9872 93.4284 80.2702 93.8004 79.6342C94.1724 78.9922 94.6764 78.4852 95.3124 78.1132C95.9544 77.7412 96.6744 77.5552 97.4724 77.5552C98.2704 77.5552 98.9874 77.7412 99.6234 78.1132C100.265 78.4852 100.772 78.9922 101.144 79.6342C101.516 80.2702 101.702 80.9872 101.702 81.7852V86.8252C101.702 87.6232 101.516 88.3432 101.144 88.9852C100.772 89.6212 100.265 90.1252 99.6234 90.4972C98.9874 90.8692 98.2704 91.0552 97.4724 91.0552ZM97.4724 89.7772C98.0064 89.7772 98.4924 89.6482 98.9304 89.3902C99.3684 89.1262 99.7164 88.7752 99.9744 88.3372C100.232 87.8992 100.361 87.4162 100.361 86.8882V81.7222C100.361 81.1882 100.232 80.7022 99.9744 80.2642C99.7164 79.8262 99.3684 79.4782 98.9304 79.2202C98.4924 78.9562 98.0064 78.8242 97.4724 78.8242C96.9384 78.8242 96.4524 78.9562 96.0144 79.2202C95.5764 79.4782 95.2284 79.8262 94.9704 80.2642C94.7124 80.7022 94.5834 81.1882 94.5834 81.7222V86.8882C94.5834 87.4162 94.7124 87.8992 94.9704 88.3372C95.2284 88.7752 95.5764 89.1262 96.0144 89.3902C96.4524 89.6482 96.9384 89.7772 97.4724 89.7772ZM105.489 90.7852L104.589 89.8852L116.676 77.8252L117.576 78.7162L105.489 90.7852ZM114.876 91.0552C114.282 91.0552 113.739 90.9112 113.247 90.6232C112.761 90.3292 112.371 89.9392 112.077 89.4532C111.783 88.9612 111.636 88.4152 111.636 87.8152C111.636 87.2272 111.786 86.6872 112.086 86.1952C112.386 85.7032 112.782 85.3102 113.274 85.0162C113.766 84.7222 114.3 84.5752 114.876 84.5752C115.47 84.5752 116.013 84.7222 116.505 85.0162C116.997 85.3042 117.387 85.6942 117.675 86.1862C117.969 86.6722 118.116 87.2152 118.116 87.8152C118.116 88.4152 117.969 88.9612 117.675 89.4532C117.387 89.9392 116.997 90.3292 116.505 90.6232C116.013 90.9112 115.47 91.0552 114.876 91.0552ZM114.876 89.8582C115.242 89.8582 115.581 89.7652 115.893 89.5792C116.205 89.3932 116.454 89.1472 116.64 88.8412C116.826 88.5292 116.919 88.1872 116.919 87.8152C116.919 87.4432 116.826 87.1042 116.64 86.7982C116.454 86.4862 116.205 86.2372 115.893 86.0512C115.581 85.8652 115.242 85.7722 114.876 85.7722C114.504 85.7722 114.162 85.8652 113.85 86.0512C113.544 86.2372 113.295 86.4862 113.103 86.7982C112.917 87.1042 112.824 87.4432 112.824 87.8152C112.824 88.1872 112.917 88.5292 113.103 88.8412C113.295 89.1472 113.544 89.3932 113.85 89.5792C114.162 89.7652 114.504 89.8582 114.876 89.8582ZM107.289 84.0352C106.695 84.0352 106.152 83.8912 105.66 83.6032C105.168 83.3092 104.775 82.9192 104.481 82.4332C104.193 81.9412 104.049 81.3952 104.049 80.7952C104.049 80.2072 104.199 79.6672 104.499 79.1752C104.799 78.6832 105.195 78.2902 105.687 77.9962C106.179 77.7022 106.713 77.5552 107.289 77.5552C107.883 77.5552 108.423 77.7022 108.909 77.9962C109.401 78.2842 109.794 78.6742 110.088 79.1662C110.382 79.6522 110.529 80.1952 110.529 80.7952C110.529 81.3952 110.382 81.9412 110.088 82.4332C109.794 82.9192 109.401 83.3092 108.909 83.6032C108.423 83.8912 107.883 84.0352 107.289 84.0352ZM107.289 82.8382C107.661 82.8382 108 82.7452 108.306 82.5592C108.618 82.3732 108.867 82.1272 109.053 81.8212C109.239 81.5092 109.332 81.1672 109.332 80.7952C109.332 80.4232 109.239 80.0842 109.053 79.7782C108.867 79.4662 108.618 79.2172 108.306 79.0312C108 78.8452 107.661 78.7522 107.289 78.7522C106.917 78.7522 106.575 78.8452 106.263 79.0312C105.957 79.2172 105.711 79.4662 105.525 79.7782C105.339 80.0842 105.246 80.4232 105.246 80.7952C105.246 81.1672 105.339 81.5092 105.525 81.8212C105.711 82.1272 105.957 82.3732 106.263 82.5592C106.575 82.7452 106.917 82.8382 107.289 82.8382ZM36.1219 116.785L36.1399 107.065H38.6239V111.745L41.9179 107.065H44.9419L41.4319 111.925L45.1759 116.785H41.9899L38.6239 112.105V116.785H36.1219ZM50.2697 117.055C49.2917 117.055 48.4337 116.836 47.6957 116.398C46.9577 115.96 46.3817 115.357 45.9677 114.589C45.5597 113.815 45.3557 112.927 45.3557 111.925C45.3557 110.911 45.5657 110.02 45.9857 109.252C46.4057 108.478 46.9847 107.875 47.7227 107.443C48.4607 107.011 49.3097 106.795 50.2697 106.795C51.2477 106.795 52.1057 107.014 52.8437 107.452C53.5877 107.89 54.1667 108.496 54.5807 109.27C54.9947 110.038 55.2017 110.923 55.2017 111.925C55.2017 112.933 54.9917 113.824 54.5717 114.598C54.1577 115.366 53.5787 115.969 52.8347 116.407C52.0967 116.839 51.2417 117.055 50.2697 117.055ZM50.2697 114.769C51.0557 114.769 51.6407 114.505 52.0247 113.977C52.4147 113.443 52.6097 112.759 52.6097 111.925C52.6097 111.061 52.4117 110.371 52.0157 109.855C51.6257 109.339 51.0437 109.081 50.2697 109.081C49.7357 109.081 49.2977 109.201 48.9557 109.441C48.6137 109.681 48.3587 110.014 48.1907 110.44C48.0287 110.866 47.9477 111.361 47.9477 111.925C47.9477 112.795 48.1427 113.488 48.5327 114.004C48.9287 114.514 49.5077 114.769 50.2697 114.769ZM57.1629 116.785V107.065H65.8389V116.785H63.3909V109.351H59.6109V116.785H57.1629ZM77.0186 107.065V116.785H74.6786V110.845L70.2866 116.785H68.3426V107.065H70.6826V112.807L75.0926 107.065H77.0186ZM85.2643 116.785V113.689H83.6983C83.4943 113.689 83.2153 113.686 82.8613 113.68C82.5133 113.668 82.1863 113.635 81.8803 113.581C81.1063 113.443 80.4703 113.107 79.9723 112.573C79.4803 112.039 79.2343 111.313 79.2343 110.395C79.2343 109.501 79.4713 108.781 79.9453 108.235C80.4193 107.689 81.0523 107.341 81.8443 107.191C82.1683 107.125 82.5013 107.089 82.8433 107.083C83.1913 107.071 83.4763 107.065 83.6983 107.065H87.7123V116.785H85.2643ZM79.0003 116.785L81.1963 113.185H83.7163L81.5563 116.785H79.0003ZM83.4283 111.799H85.2643V108.955H83.4283C83.3203 108.955 83.2003 108.961 83.0683 108.973C82.9423 108.985 82.8103 109.009 82.6723 109.045C82.5043 109.093 82.3483 109.183 82.2043 109.315C82.0603 109.441 81.9433 109.597 81.8533 109.783C81.7633 109.963 81.7183 110.161 81.7183 110.377C81.7183 110.719 81.8203 111.01 82.0243 111.25C82.2283 111.484 82.4563 111.637 82.7083 111.709C82.8343 111.745 82.9603 111.769 83.0863 111.781C83.2183 111.793 83.3323 111.799 83.4283 111.799ZM93.8133 116.785V107.065H98.3673C98.7273 107.065 99.0423 107.086 99.3123 107.128C99.5823 107.164 99.8073 107.209 99.9873 107.263C100.431 107.395 100.836 107.653 101.202 108.037C101.568 108.421 101.751 108.979 101.751 109.711C101.751 110.143 101.682 110.494 101.544 110.764C101.406 111.028 101.223 111.247 100.995 111.421C100.887 111.499 100.779 111.565 100.671 111.619C100.563 111.673 100.455 111.715 100.347 111.745C100.599 111.781 100.827 111.847 101.031 111.943C101.355 112.087 101.637 112.315 101.877 112.627C102.117 112.933 102.237 113.389 102.237 113.995C102.237 114.643 102.078 115.195 101.76 115.651C101.448 116.107 100.977 116.425 100.347 116.605C100.131 116.665 99.8763 116.71 99.5823 116.74C99.2943 116.77 98.9913 116.785 98.6733 116.785H93.8133ZM96.2973 114.931H98.4933C98.6193 114.931 98.7483 114.919 98.8803 114.895C99.0183 114.865 99.1413 114.829 99.2493 114.787C99.4233 114.715 99.5463 114.592 99.6183 114.418C99.6963 114.244 99.7353 114.067 99.7353 113.887C99.7353 113.635 99.6783 113.437 99.5643 113.293C99.4563 113.149 99.3333 113.047 99.1953 112.987C99.0813 112.933 98.9553 112.903 98.8173 112.897C98.6853 112.885 98.5773 112.879 98.4933 112.879H96.2973V114.931ZM96.2973 110.989H97.7913C97.9833 110.989 98.1633 110.98 98.3313 110.962C98.5053 110.938 98.6493 110.899 98.7633 110.845C98.9193 110.773 99.0363 110.659 99.1143 110.503C99.1923 110.341 99.2313 110.161 99.2313 109.963C99.2313 109.753 99.1863 109.564 99.0963 109.396C99.0123 109.222 98.8713 109.105 98.6733 109.045C98.5413 108.997 98.3733 108.97 98.1693 108.964C97.9713 108.958 97.8453 108.955 97.7913 108.955H96.2973V110.989ZM106.744 117.055C106.048 117.055 105.457 116.923 104.971 116.659C104.491 116.389 104.125 116.032 103.873 115.588C103.627 115.138 103.504 114.643 103.504 114.103C103.504 113.653 103.573 113.242 103.711 112.87C103.849 112.498 104.071 112.171 104.377 111.889C104.689 111.601 105.106 111.361 105.628 111.169C105.988 111.037 106.417 110.92 106.915 110.818C107.413 110.716 107.977 110.62 108.607 110.53C109.237 110.434 109.93 110.329 110.686 110.215L109.804 110.701C109.804 110.125 109.666 109.702 109.39 109.432C109.114 109.162 108.652 109.027 108.004 109.027C107.644 109.027 107.269 109.114 106.879 109.288C106.489 109.462 106.216 109.771 106.06 110.215L103.846 109.513C104.092 108.709 104.554 108.055 105.232 107.551C105.91 107.047 106.834 106.795 108.004 106.795C108.862 106.795 109.624 106.927 110.29 107.191C110.956 107.455 111.46 107.911 111.802 108.559C111.994 108.919 112.108 109.279 112.144 109.639C112.18 109.999 112.198 110.401 112.198 110.845V116.785H110.056V114.787L110.362 115.201C109.888 115.855 109.375 116.329 108.823 116.623C108.277 116.911 107.584 117.055 106.744 117.055ZM107.266 115.129C107.716 115.129 108.094 115.051 108.4 114.895C108.712 114.733 108.958 114.55 109.138 114.346C109.324 114.142 109.45 113.971 109.516 113.833C109.642 113.569 109.714 113.263 109.732 112.915C109.756 112.561 109.768 112.267 109.768 112.033L110.488 112.213C109.762 112.333 109.174 112.435 108.724 112.519C108.274 112.597 107.911 112.669 107.635 112.735C107.359 112.801 107.116 112.873 106.906 112.951C106.666 113.047 106.471 113.152 106.321 113.266C106.177 113.374 106.069 113.494 105.997 113.626C105.931 113.758 105.898 113.905 105.898 114.067C105.898 114.289 105.952 114.481 106.06 114.643C106.174 114.799 106.333 114.919 106.537 115.003C106.741 115.087 106.984 115.129 107.266 115.129ZM114.538 116.785V107.065H121.558V109.351H116.986V116.785H114.538ZM131.933 107.065V116.785H129.593V110.845L125.201 116.785H123.257V107.065H125.597V112.807L130.007 107.065H131.933ZM134.436 116.785V107.065H136.884V110.773H140.88V107.065H143.328V116.785H140.88V113.059H136.884V116.785H134.436ZM145.827 116.785V107.065H148.275V110.161H149.157C149.427 110.161 149.742 110.167 150.102 110.179C150.462 110.191 150.759 110.221 150.993 110.269C151.563 110.395 152.043 110.596 152.433 110.872C152.823 111.148 153.117 111.505 153.315 111.943C153.519 112.375 153.621 112.891 153.621 113.491C153.621 114.355 153.396 115.051 152.946 115.579C152.502 116.101 151.857 116.461 151.011 116.659C150.777 116.713 150.477 116.749 150.111 116.767C149.745 116.779 149.427 116.785 149.157 116.785H145.827ZM148.275 114.895H149.427C149.535 114.895 149.655 114.889 149.787 114.877C149.919 114.865 150.051 114.841 150.183 114.805C150.435 114.733 150.657 114.574 150.849 114.328C151.041 114.082 151.137 113.803 151.137 113.491C151.137 113.149 151.038 112.858 150.84 112.618C150.642 112.372 150.411 112.213 150.147 112.141C150.021 112.105 149.895 112.081 149.769 112.069C149.643 112.057 149.529 112.051 149.427 112.051H148.275V114.895ZM154.593 116.785V107.065H157.041V116.785H154.593ZM63.1658 142.785V133.065H65.1458L68.5298 139.365L71.9138 133.065H73.8938V142.785H71.5538V137.943L68.9618 142.785H68.0978L65.5058 137.943V142.785H63.1658ZM80.7942 143.055C79.8162 143.055 78.9582 142.836 78.2202 142.398C77.4822 141.96 76.9062 141.357 76.4922 140.589C76.0842 139.815 75.8802 138.927 75.8802 137.925C75.8802 136.911 76.0902 136.02 76.5102 135.252C76.9302 134.478 77.5092 133.875 78.2472 133.443C78.9852 133.011 79.8342 132.795 80.7942 132.795C81.7722 132.795 82.6302 133.014 83.3682 133.452C84.1122 133.89 84.6912 134.496 85.1052 135.27C85.5192 136.038 85.7262 136.923 85.7262 137.925C85.7262 138.933 85.5162 139.824 85.0962 140.598C84.6822 141.366 84.1032 141.969 83.3592 142.407C82.6212 142.839 81.7662 143.055 80.7942 143.055ZM80.7942 140.769C81.5802 140.769 82.1652 140.505 82.5492 139.977C82.9392 139.443 83.1342 138.759 83.1342 137.925C83.1342 137.061 82.9362 136.371 82.5402 135.855C82.1502 135.339 81.5682 135.081 80.7942 135.081C80.2602 135.081 79.8222 135.201 79.4802 135.441C79.1382 135.681 78.8832 136.014 78.7152 136.44C78.5532 136.866 78.4722 137.361 78.4722 137.925C78.4722 138.795 78.6672 139.488 79.0572 140.004C79.4532 140.514 80.0322 140.769 80.7942 140.769ZM86.9853 144.945V140.895C87.5013 140.895 87.8673 140.715 88.0833 140.355C88.3053 139.995 88.4793 139.353 88.6053 138.429C88.6773 137.895 88.7373 137.334 88.7853 136.746C88.8393 136.158 88.8843 135.555 88.9203 134.937C88.9563 134.319 88.9893 133.695 89.0193 133.065H96.5253V140.895H97.5153V144.945H95.2113V142.785H89.2893V144.945H86.9853ZM90.1173 140.895H94.0773V134.955H91.1433C91.1253 135.285 91.1043 135.615 91.0803 135.945C91.0623 136.275 91.0383 136.602 91.0083 136.926C90.9843 137.25 90.9603 137.565 90.9363 137.871C90.9123 138.171 90.8853 138.459 90.8553 138.735C90.8013 139.263 90.7263 139.692 90.6303 140.022C90.5343 140.352 90.3633 140.643 90.1173 140.895ZM103.825 143.055C102.829 143.055 101.95 142.842 101.188 142.416C100.432 141.984 99.8379 141.393 99.4059 140.643C98.9799 139.887 98.7669 139.023 98.7669 138.051C98.7669 136.989 98.9769 136.065 99.3969 135.279C99.8169 134.493 100.396 133.884 101.134 133.452C101.872 133.014 102.721 132.795 103.681 132.795C104.701 132.795 105.568 133.035 106.282 133.515C106.996 133.995 107.524 134.67 107.866 135.54C108.208 136.41 108.328 137.433 108.226 138.609H105.805V137.709C105.805 136.719 105.646 136.008 105.328 135.576C105.016 135.138 104.503 134.919 103.789 134.919C102.955 134.919 102.34 135.174 101.944 135.684C101.554 136.188 101.359 136.935 101.359 137.925C101.359 138.831 101.554 139.533 101.944 140.031C102.34 140.523 102.919 140.769 103.681 140.769C104.161 140.769 104.572 140.664 104.914 140.454C105.256 140.244 105.517 139.941 105.697 139.545L108.145 140.247C107.779 141.135 107.2 141.825 106.408 142.317C105.622 142.809 104.761 143.055 103.825 143.055ZM100.603 138.609V136.791H107.047V138.609H100.603ZM109.358 142.785V140.751C109.712 140.817 109.985 140.814 110.177 140.742C110.369 140.664 110.513 140.514 110.609 140.292C110.711 140.064 110.798 139.755 110.87 139.365C110.966 138.849 111.05 138.246 111.122 137.556C111.2 136.866 111.266 136.137 111.32 135.369C111.374 134.595 111.422 133.827 111.464 133.065H118.808V142.785H116.36V135.351H113.606C113.582 135.663 113.549 136.035 113.507 136.467C113.471 136.899 113.429 137.349 113.381 137.817C113.339 138.279 113.291 138.723 113.237 139.149C113.183 139.569 113.126 139.929 113.066 140.229C112.922 140.991 112.709 141.591 112.427 142.029C112.145 142.467 111.758 142.746 111.266 142.866C110.774 142.992 110.138 142.965 109.358 142.785ZM129.99 133.065V142.785H127.65V136.845L123.258 142.785H121.314V133.065H123.654V138.807L128.064 133.065H129.99Z" fill="white"/>
<path fill-rule="evenodd" clip-rule="evenodd" d="M94.4092 33.2094C93.648 33.3633 92.8279 33.7293 92.1968 34.1968C91.1223 34.9927 90.1791 36.1987 89.103 38.1526C88.8772 38.5626 88.6645 38.8035 87.5787 39.8797C86.8846 40.5676 86.1878 41.3047 86.0301 41.5176C85.6964 41.9681 85.404 42.5773 85.2584 43.1256C85.1256 43.6256 85.1258 44.8111 85.259 45.967C85.4508 47.6325 85.3706 48.9816 84.9797 50.6622C84.687 51.921 84.6248 52.3553 84.6302 53.1015C84.638 54.1769 84.9031 54.9452 85.5477 55.7606C85.6859 55.9355 86.1885 56.4823 86.6646 56.9758C87.6616 58.0091 87.9085 58.3168 88.3349 59.0573C88.934 60.098 89.4766 60.7537 90.2586 61.3823C91.9852 62.7698 94.1115 63.5029 96.6724 63.5933C100.719 63.7363 104.146 62.0646 105.787 59.1466C106.21 58.3942 106.514 58.013 107.562 56.92C109.219 55.1912 109.547 54.5505 109.545 53.0427C109.545 52.3045 109.49 51.9054 109.23 50.749C108.803 48.8428 108.75 48.0109 108.941 46.1333C109.193 43.6488 109.008 42.6677 108.043 41.3834C107.876 41.1622 107.272 40.5324 106.7 39.9838C105.492 38.8258 105.337 38.6368 104.801 37.6771C104.187 36.5777 103.61 35.7719 102.939 35.0771C102.085 34.1916 101.3 33.6712 100.365 33.3688C99.9445 33.2329 99.1852 33.0887 99.138 33.1359C99.1219 33.152 99.3883 33.5905 99.73 34.1104C102.312 38.0392 103.851 41.9808 104.448 46.1929C104.595 47.2276 104.627 49.7429 104.508 50.8681C104.062 55.0906 102.275 58.8558 99.3297 61.7785C98.489 62.6127 97.2917 63.556 97.0777 63.5527C96.948 63.5507 96.0036 62.8432 95.3424 62.2526C94.9995 61.9463 94.4683 61.4153 94.162 61.0724C91.7679 58.3926 90.3241 55.2954 89.7532 51.6144C89.5807 50.5027 89.5376 48.02 89.6691 46.7777C89.9137 44.4677 90.4501 42.3101 91.3544 39.9989C92.0553 38.2076 93.4278 35.6127 94.5928 33.8764C94.8521 33.4899 95.0643 33.1616 95.0643 33.1468C95.0643 33.1029 94.8212 33.1261 94.4092 33.2094ZM96.9118 33.8883C96.7322 33.9376 96.407 34.3577 95.7424 35.3993L95.2397 36.1872L95.4739 36.2912C96.3869 36.6966 97.6998 36.6985 98.7062 36.2958L98.937 36.2035L98.8067 35.9869C98.4043 35.3178 97.529 34.052 97.4222 33.9848C97.2437 33.8726 97.0811 33.8418 96.9118 33.8883ZM93.8719 38.7389C92.4845 41.6169 91.6675 44.4736 91.428 47.2845C91.3296 48.4395 91.3851 50.4118 91.5457 51.4637C92.0367 54.68 93.3334 57.4381 95.496 59.8659C96.0118 60.4451 96.9835 61.3503 97.0893 61.3503C97.1945 61.3503 98.1656 60.4464 98.6747 59.8745C100.622 57.6871 101.906 55.1412 102.472 52.3442C102.921 50.1293 102.91 47.5633 102.443 45.0613C102.049 42.9544 101.191 40.4798 100.102 38.3123L99.835 37.7799L99.3406 37.9769C98.588 38.2769 98.0154 38.3792 97.0893 38.3792C96.1619 38.3792 95.5907 38.2769 94.834 37.9754L94.3358 37.7768L93.8719 38.7389ZM97.9827 41.3687V42.2918H97.0893H96.1959V41.3687V40.4455H97.0893H97.9827V41.3687ZM97.5481 44.452C99.0187 46.9486 99.9438 49.4652 100.191 51.6424C100.449 53.9173 99.6841 56.2545 98.4003 57.1117C97.9228 57.4306 97.6503 57.5091 97.026 57.5076C96.5684 57.5065 96.4735 57.4856 96.1028 57.3043C95.0694 56.7989 94.3039 55.4903 94.0152 53.7362C93.9027 53.0525 93.9323 51.7219 94.0776 50.9291C94.3429 49.4819 94.8835 47.8719 95.6381 46.2822C95.9651 45.5932 97.0247 43.7201 97.0861 43.7225C97.1043 43.7232 97.3122 44.0515 97.5481 44.452ZM96.8408 47.9946C96.0659 49.8409 95.6585 51.671 95.7384 52.9466C95.8194 54.2405 96.3379 55.4551 96.9103 55.6922C97.4073 55.898 97.9496 55.2167 98.2893 53.9596C98.401 53.5464 98.4246 53.308 98.4241 52.5953C98.4235 51.6408 98.3047 50.893 97.978 49.786C97.7894 49.1469 97.1479 47.4732 97.0916 47.4735C97.074 47.4736 96.9611 47.7081 96.8408 47.9946Z" fill="white"/>
</svg>
