<svg width="168" height="41" viewBox="0 0 168 41" fill="none" xmlns="http://www.w3.org/2000/svg">
<path d="M13.239 15.4776C13.4457 11.9665 11.9759 5.76973 13.4301 1.83084C13.8186 0.760109 14.7472 0.0385337 15.6709 0.00191157C17.0727 -0.0529673 17.5955 1.25793 17.8949 2.28813C19.8542 9.029 21.0624 33.8893 15.7172 33.7127C3.93367 33.3235 -0.442553 26.9608 0.0349313 21.801C0.381006 18.0676 4.33382 15.0157 13.239 15.4776ZM6.31122 12.3492C3.76113 10.0647 1.4087 8.19332 0.388903 4.5336C0.0770525 3.43874 0.409525 2.31682 1.13985 1.75521C2.2486 0.903338 3.44291 1.66947 4.2906 2.3354C6.26328 3.88505 7.68619 5.35994 10.4214 9.51073C13.4809 13.956 11.6512 17.2593 6.31122 12.3492ZM11.0525 19.3199C10.899 19.4797 10.7078 19.5611 10.4852 19.5611C10.2628 19.5608 10.0713 19.4796 9.91785 19.3199C9.59755 18.9863 9.21089 18.8196 8.65575 18.8196C7.64572 18.8196 6.82622 19.6315 6.82622 20.632C6.82622 22.4121 7.94309 24.1919 10.3515 25.9718C10.4321 26.0314 10.5385 26.0314 10.6192 25.9718C13.0275 24.1919 14.1446 22.4121 14.1446 20.632C14.1446 19.6315 13.3251 18.8196 12.315 18.8196C11.7599 18.8196 11.3729 18.9863 11.0526 19.3199H11.0525Z" fill="#F6F7FC"/>
<path d="M29.7022 33.7084C36.138 33.7084 38.5687 29.0622 38.5687 24.7549C38.5687 20.4477 36.1039 15.9031 29.7022 15.9031C23.3007 15.9031 20.8359 20.4477 20.8359 24.7549C20.8359 29.0622 23.2665 33.7084 29.7022 33.7084ZM29.7022 19.8372C32.749 19.8372 32.7832 23.0592 32.7832 24.5513C32.7832 26.654 32.7148 29.7742 29.7022 29.7742C26.6898 29.7742 26.6212 26.654 26.6212 24.5513C26.6212 23.0592 26.6555 19.8372 29.7022 19.8372Z" fill="#F6F7FC"/>
<path d="M51.7171 24.9243C51.7171 28.5192 50.2793 30.1811 48.2596 30.1811C46.5822 30.1811 45.8632 29.028 45.6237 28.3497V22.7198C45.6237 21.2953 46.5823 19.837 48.4993 19.837C51.0668 19.837 51.7172 22.5163 51.7172 24.9242L51.7171 24.9243ZM39.6328 16.2421C39.6328 16.2421 40.0094 19.1928 40.0094 28.3158V40.3556H45.6236V32.2499C46.2398 32.8943 47.5406 33.7083 49.8001 33.7083C54.9008 33.7083 57.4682 29.6046 57.4682 24.6531C57.4682 19.8032 55.0377 15.9031 50.2793 15.9031C48.0199 15.9031 46.4453 16.7848 45.2812 18.5824C44.4596 16.6153 41.6183 16.2422 39.6328 16.2422V16.2421Z" fill="#F6F7FC"/>
<path d="M64.6275 33.3692V16.2422H58.6367C58.6367 16.2422 59.0133 19.1928 59.0133 28.3159V33.3692H64.6275Z" fill="#F6F7FC"/>
<path d="M66.3438 16.2422C66.3438 16.2422 66.7203 19.1929 66.7203 28.3159V33.3692H72.3003V23.9748C72.3003 22.1435 73.0534 20.2782 75.3128 20.2782C77.2299 20.2782 77.6407 21.6347 77.6407 23.0592V33.3692H83.2207V21.9399C83.2207 18.2771 81.1667 15.9031 77.4354 15.9031C74.7309 15.9031 72.9508 17.158 71.821 18.9893C71.0679 16.5135 68.0896 16.2422 66.3438 16.2422Z" fill="#F6F7FC"/>
<path d="M101.473 35.2685C101.473 31.0292 96.8856 30.6222 92.401 30.2491C91.5452 30.1813 90.7578 30.1474 90.2444 29.9778C89.7992 29.8421 89.5597 29.6047 89.5597 29.1977C89.5597 28.7908 89.7992 28.5533 89.9362 28.4177C90.5866 28.5194 91.2713 28.5872 92.1613 28.5872C97.0909 28.5872 99.9323 26.4166 99.9323 22.8217C99.9323 21.3295 99.4529 20.3459 98.6998 19.5659C100.48 19.4642 101.096 18.0736 101.096 16.9883C101.096 16.1066 100.685 15.2248 99.898 14.6482C98.9737 16.1405 98.1521 16.4118 96.9197 16.4118C95.2423 16.4118 93.4964 15.9031 91.4766 15.9031C86.6156 15.9031 84.3219 18.8877 84.3219 21.9738C84.3219 24.1783 85.4859 26.1454 87.985 27.0272C85.5543 27.7055 84.6301 29.096 84.6301 30.7578C84.6301 36.5573 96.1325 33.2676 96.1325 36.3198C96.1325 37.2695 94.9685 37.9477 91.9903 37.9477C90.484 37.9477 88.0877 37.7782 88.0877 36.0486C88.0877 35.1668 88.7039 35.065 88.7039 35.065C88.122 34.7597 87.5057 34.6241 86.8553 34.6241C85.3832 34.6241 83.8086 35.3024 83.8086 37.1678C83.8086 38.7957 84.9725 41.0002 91.6138 41.0002C98.0153 41.0002 101.473 38.9652 101.473 35.2685H101.473ZM94.6945 22.3809C94.6945 23.7374 94.2837 25.5689 92.2298 25.5689C90.1074 25.5689 89.7308 23.6696 89.7308 22.3809C89.7308 20.8547 90.2785 19.0572 92.2298 19.0572C94.1468 19.0572 94.6945 20.8208 94.6945 22.3809Z" fill="#F6F7FC"/>
<path d="M101.648 9.62866C101.648 9.62866 102.025 12.6471 102.025 21.7702V29.8419C102.025 31.8429 103.052 33.7082 106.201 33.7082C107.331 33.7082 108.598 33.4709 109.59 32.7925C108.084 31.9108 107.605 30.8594 107.605 29.5707V9.62877H101.648V9.62866Z" fill="#F00000"/>
<path d="M118.155 33.7084C124.591 33.7084 127.022 29.0622 127.022 24.7549C127.022 20.4477 124.557 15.9031 118.155 15.9031C111.754 15.9031 109.289 20.4477 109.289 24.7549C109.289 29.0622 111.72 33.7084 118.155 33.7084ZM118.807 21.7823C119.175 21.3989 119.62 21.2072 120.258 21.2072C121.419 21.2072 122.361 22.1404 122.361 23.2904C122.361 25.3362 121.077 27.3819 118.309 29.4275C118.216 29.496 118.094 29.496 118.001 29.4275C115.233 27.3818 113.95 25.336 113.95 23.2904C113.95 22.1404 114.892 21.2072 116.053 21.2072C116.691 21.2072 117.135 21.3988 117.503 21.7823C117.68 21.9658 117.9 22.0592 118.155 22.0594C118.411 22.0594 118.631 21.9657 118.807 21.7823Z" fill="#F00000"/>
<path d="M143.767 16.2419H138.324C137.537 19.5656 135.003 28.587 135.003 28.587L131.888 16.2419H125.863L131.375 33.3689H138.084L143.767 16.2419Z" fill="#F00000"/>
<path d="M153.937 22.7199H148.426C148.426 21.1259 149.419 19.6675 151.301 19.6675C153.013 19.6675 153.937 20.8885 153.937 22.3468V22.7199ZM151.644 33.7083C156.95 33.7083 158.559 30.7578 158.559 29.028C158.559 28.5533 158.422 28.0107 158.319 27.7732C157.772 28.4515 156.163 29.8421 153.424 29.8421C151.199 29.8421 148.837 28.9263 148.529 25.6027H158.935C159.038 24.9244 159.107 24.2462 159.107 23.5679C159.107 19.6677 156.847 15.9031 151.575 15.9031C146.475 15.9031 142.777 19.4641 142.777 24.8227C142.777 29.2316 145.276 33.7084 151.644 33.7084L151.644 33.7083Z" fill="#F00000"/>
<path d="M61.6322 14.6775C63.8064 14.6775 64.6276 13.1079 64.6276 11.6528C64.6276 10.1977 63.7949 8.66235 61.6322 8.66235C59.4695 8.66235 58.6367 10.1977 58.6367 11.6528C58.6367 13.1079 59.4579 14.6775 61.6322 14.6775Z" fill="#F6F7FC"/>
<path d="M158.267 15.6546V11.6997H156.75V11.1819H160.404V11.6997H158.875V15.6546H158.268H158.267ZM161.247 15.6546V11.1819H161.928L163.508 14.2171L165.081 11.1819H165.75V15.6546H165.205V12.0445L163.768 14.7985H163.241L161.792 12.0445V15.6546H161.247Z" fill="#F6F7FC"/>
</svg>
