<svg width="315" height="66" viewBox="0 0 315 66" fill="none" xmlns="http://www.w3.org/2000/svg">
<path fill-rule="evenodd" clip-rule="evenodd" d="M41.8589 4.80219C68.8109 1.30098 109.93 0.104553 166.914 1.46036C206.374 2.39921 243.245 4.63676 270.214 9.05568C283.685 11.2628 294.787 14.0296 302.525 17.5004C310.171 20.9301 315.059 25.3018 314.914 30.9061C314.786 35.876 311.52 39.721 306.508 42.6843C301.515 45.6367 294.607 47.8337 286.716 49.528C270.919 52.9198 250.694 54.392 232.731 55.594C220.437 56.4167 199.82 57.3361 177.825 58.1863L256.131 62.6824L255.964 65.2172L150.778 59.1777C149.926 59.2074 149.077 59.2369 148.23 59.2662C115.809 60.3873 87.0288 61.1976 84.7397 61.1432L84.8054 58.6042C86.4165 58.6426 102.582 58.2104 124.081 57.5263C85.2236 54.3641 56.3275 50.164 36.3911 45.1572C24.48 42.1658 15.667 38.8626 9.82727 35.2606C3.99943 31.6659 0.87542 27.5999 0.992449 23.0745C1.11219 18.4443 4.94525 14.7398 11.6318 11.8231C18.3625 8.88724 28.3967 6.55101 41.8589 4.80219ZM148.193 56.7256C148.225 56.7245 148.258 56.7234 148.29 56.7223L148.305 56.4913L150.805 56.6349C181.676 55.5575 215.31 54.2126 232.521 53.061C250.531 51.8559 270.528 50.3931 286.073 47.0556C293.853 45.3853 300.396 43.2691 304.993 40.5513C309.571 37.8445 312.035 34.6623 312.134 30.8399C312.238 26.8447 308.78 23.1332 301.304 19.7795C293.919 16.4668 283.121 13.7496 269.73 11.5555C242.975 7.17187 206.276 4.93739 166.848 3.99928C109.899 2.64431 68.9703 3.84648 42.257 7.31669C28.8866 9.05358 19.1837 11.3463 12.8352 14.1155C6.44252 16.9039 3.85415 19.9805 3.77243 23.1406C3.688 26.4054 5.89707 29.7751 11.3797 33.1569C16.8504 36.5313 25.3253 39.7457 37.1223 42.7084C60.6838 48.6256 97.0985 53.4444 148.193 56.7256Z" fill="#FB1F1D"/>
</svg>
