<svg width="38" height="38" viewBox="0 0 38 38" fill="none" xmlns="http://www.w3.org/2000/svg">
<path d="M35.9588 30.8781L32.9338 31.5931C32.2554 31.7581 31.7238 32.2715 31.5771 32.9498L30.9354 35.6448C30.5871 37.1115 28.7171 37.5698 27.7454 36.4148L22.2638 30.1081C21.8238 29.5948 22.0621 28.7881 22.7221 28.6231C25.9671 27.8348 28.8821 26.0198 31.0271 23.4348C31.3754 23.0131 31.9988 22.9581 32.3838 23.3431L36.4538 27.4131C37.8471 28.8065 37.3521 30.5481 35.9588 30.8781Z" fill="#FB1F1D"/>
<path d="M35.9588 30.8781L32.9338 31.5931C32.2554 31.7581 31.7238 32.2715 31.5771 32.9498L30.9354 35.6448C30.5871 37.1115 28.7171 37.5698 27.7454 36.4148L22.2638 30.1081C21.8238 29.5948 22.0621 28.7881 22.7221 28.6231C25.9671 27.8348 28.8821 26.0198 31.0271 23.4348C31.3754 23.0131 31.9988 22.9581 32.3838 23.3431L36.4538 27.4131C37.8471 28.8065 37.3521 30.5481 35.9588 30.8781Z" fill="url(#paint0_radial_98_337)" fill-opacity="0.7"/>
<path d="M35.9588 30.8781L32.9338 31.5931C32.2554 31.7581 31.7238 32.2715 31.5771 32.9498L30.9354 35.6448C30.5871 37.1115 28.7171 37.5698 27.7454 36.4148L22.2638 30.1081C21.8238 29.5948 22.0621 28.7881 22.7221 28.6231C25.9671 27.8348 28.8821 26.0198 31.0271 23.4348C31.3754 23.0131 31.9988 22.9581 32.3838 23.3431L36.4538 27.4131C37.8471 28.8065 37.3521 30.5481 35.9588 30.8781Z" fill="url(#paint1_radial_98_337)"/>
<path d="M1.94981 30.8781L4.97481 31.5931C5.65314 31.7581 6.18481 32.2715 6.33148 32.9498L6.97314 35.6448C7.32148 37.1115 9.19148 37.5698 10.1631 36.4148L15.6448 30.1081C16.0848 29.5948 15.8465 28.7881 15.1865 28.6231C11.9415 27.8348 9.02648 26.0198 6.88148 23.4348C6.53314 23.0131 5.90981 22.9581 5.52481 23.3431L1.45481 27.4131C0.0614768 28.8065 0.556477 30.5481 1.94981 30.8781Z" fill="#FB1F1D"/>
<path d="M1.94981 30.8781L4.97481 31.5931C5.65314 31.7581 6.18481 32.2715 6.33148 32.9498L6.97314 35.6448C7.32148 37.1115 9.19148 37.5698 10.1631 36.4148L15.6448 30.1081C16.0848 29.5948 15.8465 28.7881 15.1865 28.6231C11.9415 27.8348 9.02648 26.0198 6.88148 23.4348C6.53314 23.0131 5.90981 22.9581 5.52481 23.3431L1.45481 27.4131C0.0614768 28.8065 0.556477 30.5481 1.94981 30.8781Z" fill="url(#paint2_radial_98_337)" fill-opacity="0.7"/>
<path d="M1.94981 30.8781L4.97481 31.5931C5.65314 31.7581 6.18481 32.2715 6.33148 32.9498L6.97314 35.6448C7.32148 37.1115 9.19148 37.5698 10.1631 36.4148L15.6448 30.1081C16.0848 29.5948 15.8465 28.7881 15.1865 28.6231C11.9415 27.8348 9.02648 26.0198 6.88148 23.4348C6.53314 23.0131 5.90981 22.9581 5.52481 23.3431L1.45481 27.4131C0.0614768 28.8065 0.556477 30.5481 1.94981 30.8781Z" fill="url(#paint3_radial_98_337)"/>
<path d="M19.0003 0.685547C11.9053 0.685547 6.16699 6.42388 6.16699 13.5189C6.16699 16.1772 6.95533 18.6155 8.31199 20.6505C10.292 23.5839 13.427 25.6555 17.0753 26.1872C17.6987 26.2972 18.3403 26.3522 19.0003 26.3522C19.6603 26.3522 20.302 26.2972 20.9253 26.1872C24.5737 25.6555 27.7087 23.5839 29.6887 20.6505C31.0453 18.6155 31.8337 16.1772 31.8337 13.5189C31.8337 6.42388 26.0953 0.685547 19.0003 0.685547ZM24.6103 13.1155L23.0887 14.6372C22.832 14.8939 22.6853 15.3889 22.777 15.7555L23.217 17.6439C23.5653 19.1289 22.777 19.7155 21.457 18.9272L19.6237 17.8455C19.2937 17.6439 18.7437 17.6439 18.4137 17.8455L16.5803 18.9272C15.2603 19.6972 14.472 19.1289 14.8203 17.6439L15.2603 15.7555C15.3337 15.4072 15.2053 14.8939 14.9487 14.6372L13.3903 13.1155C12.492 12.2172 12.7853 11.3189 14.032 11.1172L15.9937 10.7872C16.3237 10.7322 16.7087 10.4389 16.8553 10.1455L17.937 7.98221C18.5237 6.80888 19.477 6.80888 20.0637 7.98221L21.1453 10.1455C21.292 10.4389 21.677 10.7322 22.0253 10.7872L23.987 11.1172C25.2153 11.3189 25.5087 12.2172 24.6103 13.1155Z" fill="#FB1F1D"/>
<path d="M19.0003 0.685547C11.9053 0.685547 6.16699 6.42388 6.16699 13.5189C6.16699 16.1772 6.95533 18.6155 8.31199 20.6505C10.292 23.5839 13.427 25.6555 17.0753 26.1872C17.6987 26.2972 18.3403 26.3522 19.0003 26.3522C19.6603 26.3522 20.302 26.2972 20.9253 26.1872C24.5737 25.6555 27.7087 23.5839 29.6887 20.6505C31.0453 18.6155 31.8337 16.1772 31.8337 13.5189C31.8337 6.42388 26.0953 0.685547 19.0003 0.685547ZM24.6103 13.1155L23.0887 14.6372C22.832 14.8939 22.6853 15.3889 22.777 15.7555L23.217 17.6439C23.5653 19.1289 22.777 19.7155 21.457 18.9272L19.6237 17.8455C19.2937 17.6439 18.7437 17.6439 18.4137 17.8455L16.5803 18.9272C15.2603 19.6972 14.472 19.1289 14.8203 17.6439L15.2603 15.7555C15.3337 15.4072 15.2053 14.8939 14.9487 14.6372L13.3903 13.1155C12.492 12.2172 12.7853 11.3189 14.032 11.1172L15.9937 10.7872C16.3237 10.7322 16.7087 10.4389 16.8553 10.1455L17.937 7.98221C18.5237 6.80888 19.477 6.80888 20.0637 7.98221L21.1453 10.1455C21.292 10.4389 21.677 10.7322 22.0253 10.7872L23.987 11.1172C25.2153 11.3189 25.5087 12.2172 24.6103 13.1155Z" fill="url(#paint4_radial_98_337)" fill-opacity="0.7"/>
<path d="M19.0003 0.685547C11.9053 0.685547 6.16699 6.42388 6.16699 13.5189C6.16699 16.1772 6.95533 18.6155 8.31199 20.6505C10.292 23.5839 13.427 25.6555 17.0753 26.1872C17.6987 26.2972 18.3403 26.3522 19.0003 26.3522C19.6603 26.3522 20.302 26.2972 20.9253 26.1872C24.5737 25.6555 27.7087 23.5839 29.6887 20.6505C31.0453 18.6155 31.8337 16.1772 31.8337 13.5189C31.8337 6.42388 26.0953 0.685547 19.0003 0.685547ZM24.6103 13.1155L23.0887 14.6372C22.832 14.8939 22.6853 15.3889 22.777 15.7555L23.217 17.6439C23.5653 19.1289 22.777 19.7155 21.457 18.9272L19.6237 17.8455C19.2937 17.6439 18.7437 17.6439 18.4137 17.8455L16.5803 18.9272C15.2603 19.6972 14.472 19.1289 14.8203 17.6439L15.2603 15.7555C15.3337 15.4072 15.2053 14.8939 14.9487 14.6372L13.3903 13.1155C12.492 12.2172 12.7853 11.3189 14.032 11.1172L15.9937 10.7872C16.3237 10.7322 16.7087 10.4389 16.8553 10.1455L17.937 7.98221C18.5237 6.80888 19.477 6.80888 20.0637 7.98221L21.1453 10.1455C21.292 10.4389 21.677 10.7322 22.0253 10.7872L23.987 11.1172C25.2153 11.3189 25.5087 12.2172 24.6103 13.1155Z" fill="url(#paint5_radial_98_337)"/>
<defs>
<radialGradient id="paint0_radial_98_337" cx="0" cy="0" r="1" gradientUnits="userSpaceOnUse" gradientTransform="translate(10.2988 8.2648) rotate(50.8305) scale(30.6319 30.6799)">
<stop stop-color="white" stop-opacity="0.59"/>
<stop offset="0.697917" stop-color="white" stop-opacity="0"/>
<stop offset="1" stop-color="white" stop-opacity="0"/>
</radialGradient>
<radialGradient id="paint1_radial_98_337" cx="0" cy="0" r="1" gradientUnits="userSpaceOnUse" gradientTransform="translate(32.2619 32.5184) rotate(-93.6985) scale(31.1398 34.9698)">
<stop stop-opacity="0.23"/>
<stop offset="0.861815" stop-opacity="0"/>
</radialGradient>
<radialGradient id="paint2_radial_98_337" cx="0" cy="0" r="1" gradientUnits="userSpaceOnUse" gradientTransform="translate(10.2988 8.2648) rotate(50.8305) scale(30.6319 30.6799)">
<stop stop-color="white" stop-opacity="0.59"/>
<stop offset="0.697917" stop-color="white" stop-opacity="0"/>
<stop offset="1" stop-color="white" stop-opacity="0"/>
</radialGradient>
<radialGradient id="paint3_radial_98_337" cx="0" cy="0" r="1" gradientUnits="userSpaceOnUse" gradientTransform="translate(32.2619 32.5184) rotate(-93.6985) scale(31.1398 34.9698)">
<stop stop-opacity="0.23"/>
<stop offset="0.861815" stop-opacity="0"/>
</radialGradient>
<radialGradient id="paint4_radial_98_337" cx="0" cy="0" r="1" gradientUnits="userSpaceOnUse" gradientTransform="translate(10.2988 8.2648) rotate(50.8305) scale(30.6319 30.6799)">
<stop stop-color="white" stop-opacity="0.59"/>
<stop offset="0.697917" stop-color="white" stop-opacity="0"/>
<stop offset="1" stop-color="white" stop-opacity="0"/>
</radialGradient>
<radialGradient id="paint5_radial_98_337" cx="0" cy="0" r="1" gradientUnits="userSpaceOnUse" gradientTransform="translate(32.2619 32.5184) rotate(-93.6985) scale(31.1398 34.9698)">
<stop stop-opacity="0.23"/>
<stop offset="0.861815" stop-opacity="0"/>
</radialGradient>
</defs>
</svg>
