<svg width="165" height="160" viewBox="0 0 165 160" fill="none" xmlns="http://www.w3.org/2000/svg">
<g filter="url(#filter0_d_316_849)">
<path fill-rule="evenodd" clip-rule="evenodd" d="M68.8045 17.3947C67.3131 17.9111 65.9041 18.9789 65.2522 20.0869C64.6928 21.0375 64.5528 21.546 64.4706 22.9275C64.3731 24.5643 64.6178 25.8625 65.4085 27.9032C65.6772 28.5967 65.9344 29.5451 65.9828 30.0203C66.0917 31.0907 65.9514 32.114 65.6812 32.2183C65.3851 32.3327 64.4742 31.3754 64.048 30.5016C63.6889 29.7653 63.6852 29.7288 63.6852 26.9289C63.6852 25.05 63.6372 24.084 63.5422 24.052C63.3153 23.9754 62.1546 25.2951 61.861 25.9632C61.6708 26.3963 61.5568 27.0956 61.4645 28.3959C61.3452 30.0777 61.3034 30.2707 60.9317 30.861C60.3279 31.8195 60.4186 32.6035 61.2183 33.3388C61.5204 33.6168 61.8367 33.7521 62.3272 33.8136C63.0761 33.9074 63.8867 34.2634 63.8867 34.4985C63.8867 34.58 63.4634 34.9379 62.9462 35.2938C61.8371 36.0567 61.4328 36.5101 60.9546 37.527C60.6093 38.2612 60.6006 38.3464 60.5816 41.1866C60.5709 42.7859 60.4933 44.551 60.4089 45.1089C60.1792 46.6283 60.4495 47.8482 61.4873 49.978C63.9161 54.962 64.0367 56.1795 62.3739 58.9285C62.2084 59.2019 61.8538 59.7873 61.5857 60.2293C60.7715 61.5718 60.5282 62.3976 60.5298 63.8127C60.5321 65.7775 61.1786 67.4315 62.5095 68.8768C62.9361 69.3402 63.3852 69.9184 63.5073 70.1617C63.6294 70.4049 63.9181 70.9906 64.1486 71.463C64.7915 72.7798 66.2689 74.6777 67.9797 76.3842C68.8316 77.2341 69.5287 78.031 69.5287 78.1552C69.5287 78.4313 69.5886 78.4334 68.1305 78.1088C65.8169 77.5939 63.6021 77.6212 61.7373 78.1878C61.331 78.3112 60.3335 78.6277 59.5208 78.8911C58.3262 79.2782 57.7686 79.382 56.6091 79.4334C55.0768 79.5013 54.3282 79.4186 54.051 79.1506C52.8442 77.9837 51.7596 77.4896 50.918 77.7236C50.1873 77.9267 49.7318 78.2465 48.5745 79.3686C47.2061 80.6957 47.1143 80.7504 45.1297 81.4223C44.0601 81.7845 43.3009 82.125 43.067 82.3472C42.8633 82.5406 42.5228 82.7761 42.31 82.8703C41.6918 83.1442 41.5885 83.4 41.9188 83.8389C42.2021 84.2156 44.0179 84.4939 46.2218 84.4985C47.8209 84.5017 48.2986 84.4502 49.4128 84.1544C50.1335 83.963 50.7916 83.7638 50.8752 83.7117C50.9589 83.6597 51.5783 83.506 52.2516 83.3705C53.6159 83.0957 55.9228 83.0425 57.3043 83.254C61.2592 83.8597 65.3904 84.0146 68.7898 83.6848C69.6764 83.5988 70.9868 83.4976 71.7018 83.46C73.9566 83.3416 74.7677 83.1918 74.7677 82.894C74.7677 82.7174 74.6645 82.6936 74.1967 82.7623C73.5523 82.8571 71.8357 82.4538 71.9467 82.2337C72.0181 82.0919 72.0432 82.0922 73.8684 82.2456C74.8649 82.3293 75.123 82.4024 75.5062 82.709C76.6027 83.5862 79.0784 84.1466 83.3003 84.4732L85.3178 84.6293L86.9273 83.9978C87.8125 83.6503 88.8089 83.2639 89.1413 83.1391C89.4738 83.0142 89.766 82.8663 89.7906 82.8106C89.8153 82.7547 89.9264 82.7091 90.0375 82.7091C90.2852 82.7091 91.9309 81.794 92.2365 81.4863C92.7383 80.9811 93.7047 80.4186 94.4407 80.2032C95.7308 79.8255 96.2497 79.5318 96.6891 78.9303L97.1064 78.359L97.8591 78.4231C98.7045 78.4952 99.0157 78.5601 100.358 78.9454C101.647 79.3152 102.169 79.5589 102.454 79.9226C102.895 80.488 104.154 81.2484 105.083 81.5115C105.588 81.6543 106.579 81.8081 107.285 81.8532C108.385 81.9236 108.71 81.8921 109.534 81.6352C110.064 81.4699 110.532 81.2788 110.574 81.2105C110.616 81.1421 110.738 81.0861 110.844 81.0861C111.093 81.0861 111.086 81.4837 110.832 81.822C110.723 81.9664 110.635 82.1915 110.635 82.3223C110.635 82.4531 110.42 82.7253 110.157 82.9271C109.743 83.2449 109.549 83.2954 108.713 83.3034C107.668 83.3133 105.389 82.9393 104.523 82.6158C103.516 82.2401 102.575 82.1214 101.881 82.2829C100.268 82.6579 98.7814 84.2252 98.2157 86.1474C97.8929 87.2444 98.2583 87.3465 99.2687 86.4415C99.9667 85.8163 100.427 85.6885 101.99 85.6859C102.907 85.6843 104.336 86.2765 105.529 87.1526C107.406 88.5317 108.835 88.9898 111.239 88.9836C112.98 88.9791 114.782 88.6752 115.624 88.2439C116.672 87.7072 117.554 86.2671 117.797 84.6968C118.159 82.347 116.936 79.5212 115.135 78.5478C114.894 78.418 114.366 78.3218 113.824 78.3095C113.325 78.2983 112.877 78.2488 112.828 78.1995C112.779 78.1504 112.803 77.9732 112.881 77.8059C113.62 76.2254 113.416 74.1484 112.349 72.3954C111.828 71.539 111.559 71.2851 110.769 70.907C110.231 70.6495 109.926 70.6167 108.005 70.6108L105.845 70.604L105.184 70.168C104.82 69.928 104.32 69.6249 104.073 69.4943L103.624 69.2568L103.357 69.6261C103.143 69.9222 102.983 69.9954 102.551 69.9954C102.21 69.9954 101.858 70.1053 101.595 70.294C101.279 70.5206 100.982 70.594 100.367 70.5983L99.5546 70.604L99.3664 71.3127C99.198 71.9468 99.2029 72.1037 99.4134 72.8005C99.5429 73.229 99.6551 73.6815 99.6629 73.8064C99.6705 73.9311 99.7244 74.0036 99.7824 73.9675C99.8405 73.9312 99.888 74.0271 99.888 74.1802C99.888 74.5688 99.7239 74.5319 98.9144 73.9612C97.322 72.8384 97.2374 72.6644 97.1719 70.3814C97.1255 68.759 97.1022 68.637 96.7203 68.0145C96.2642 67.2711 95.4732 66.767 94.5147 66.6093C93.9819 66.5217 92.7205 66.6525 91.0506 66.9684C90.7186 67.0313 90.3521 66.94 89.573 66.6007C89.0031 66.3523 88.5167 66.1017 88.4921 66.0436C88.4674 65.9854 88.3946 65.9378 88.3301 65.9378C88.0536 65.9378 87.0963 65.1453 85.7553 63.8068C84.9644 63.0172 84.2088 62.3114 84.0762 62.2386C83.9436 62.1659 83.4922 61.8424 83.073 61.5199C82.6537 61.1973 82.2457 60.9335 82.1662 60.9335C81.9219 60.9335 82.0054 60.6148 82.3576 60.2023C82.5424 59.9861 82.6936 59.6818 82.6939 59.526C82.6941 59.3703 82.815 59.0436 82.9625 58.8C83.272 58.2889 83.325 57.1928 83.0581 56.8252C82.9627 56.6937 82.6322 56.5532 82.3192 56.511C81.6128 56.4156 81.5897 56.167 82.2568 55.8388C82.6389 55.6508 82.7605 55.5093 82.7605 55.2528C82.7605 54.9639 82.6725 54.8935 82.156 54.7684L81.5515 54.6222L81.4534 53.5511C81.2126 50.9215 80.7842 46.8047 80.6053 45.4013C80.4977 44.5579 80.4097 43.3445 80.4097 42.7051C80.4097 41.1785 80.1402 40.5924 79.1267 39.9148C78.3013 39.3631 73.4022 36.8896 71.7452 36.188C71.1541 35.9378 70.2884 35.5603 69.8215 35.3491C69.3546 35.1378 68.9436 34.965 68.9083 34.965C68.6093 34.965 66.9051 33.6391 67.0354 33.5077C67.1094 33.4332 68.3553 34.0274 69.2613 34.5693C70.2072 35.1351 70.469 35.1586 70.469 34.6777C70.469 34.3423 71.0015 33.0714 71.1421 33.0714C71.1986 33.0714 71.6294 33.2521 72.0995 33.473C72.5696 33.6939 73.2866 33.913 73.693 33.96C74.668 34.073 75.0253 33.7908 75.6488 32.4156C75.9068 31.8464 76.207 31.2085 76.316 30.9979C76.4249 30.7873 76.514 30.4249 76.514 30.1928C76.514 29.9019 76.6465 29.633 76.9397 29.3283L77.3655 28.886L77.0758 27.7045L76.786 26.5229L77.1425 26.1484C77.4226 25.8539 77.511 25.6067 77.5555 24.9931C77.5867 24.5636 77.7272 23.8752 77.8678 23.4632C78.3009 22.1935 78.3321 21.5704 77.9953 20.9057C77.6413 20.2073 77.3541 19.9261 75.7694 18.7272C74.3747 17.672 73.896 17.4603 72.4449 17.2577C70.8743 17.0385 69.7064 17.0824 68.8045 17.3947ZM74.5832 41.8967C74.9419 42.1383 75.2558 42.4451 75.281 42.5782C75.3061 42.7113 75.1926 43.0765 75.0288 43.3897C74.6767 44.0626 73.961 46.4785 73.9633 46.9861C73.9641 47.1811 73.8194 47.797 73.6418 48.355C73.4641 48.9129 73.1839 49.7954 73.019 50.3161C72.8542 50.8368 72.7425 51.3831 72.7708 51.5302C72.8002 51.683 73.368 52.1829 74.0972 52.6978C75.5269 53.7073 76.3797 54.4634 76.3797 54.7214C76.3797 54.8328 76.2721 54.798 76.0774 54.6239C75.9111 54.4751 75.4125 54.1216 74.9692 53.838C74.5259 53.5545 73.8557 53.1145 73.4797 52.8602C73.1038 52.606 72.2273 52.1945 71.5318 51.9459C69.8833 51.3569 67.7743 50.3574 67.4931 50.0321C67.3354 49.8496 67.2287 49.304 67.1256 48.1521C67.0456 47.2594 66.8237 45.9508 66.6323 45.2442C66.441 44.5375 66.2548 43.8071 66.2188 43.6211L66.1531 43.283L66.4788 43.6671C66.9529 44.2268 67.4893 45.6383 67.656 46.7651C67.7358 47.3047 67.8616 48.1501 67.9356 48.6435L68.0699 49.5407L68.6069 49.6271C69.1373 49.7126 70.8295 50.5152 71.6108 51.0519C71.8325 51.2042 72.0877 51.3292 72.178 51.3296C72.351 51.3305 72.6312 50.4544 72.8914 49.0989C72.977 48.6525 73.2895 47.5318 73.5858 46.6083C74.2161 44.644 74.2322 43.8262 73.6681 42.4429C73.3346 41.6253 73.3491 41.4978 73.7786 41.4678C73.8625 41.462 74.2247 41.655 74.5832 41.8967ZM71.7308 57.0898C71.7757 57.2075 71.8123 57.8639 71.8123 58.5484C71.8123 59.4665 71.7383 60.0049 71.5304 60.6001C71.3291 61.1754 71.2425 61.7753 71.2281 62.6917C71.2105 63.8093 71.2571 64.1034 71.5864 64.9503C71.8952 65.7448 72.1185 66.0683 72.7998 66.7086C73.6958 67.5507 75.1739 68.3577 76.3202 68.6307C77.2651 68.8559 78.8149 68.9005 79.9965 68.7367C81.5882 68.516 83.009 68.9213 84.2778 69.9579C84.9178 70.4807 85.5353 71.2893 86.5123 72.8841C87.5409 74.563 89.8017 76.758 90.5021 76.758C91.0135 76.758 90.9915 76.9625 90.4559 77.1862C88.9969 77.7959 86.0995 79.5011 85.0901 80.3438C84.7515 80.6265 84.5623 80.6471 81.4377 80.7405C79.6253 80.7948 78.0179 80.7992 77.8655 80.7505C77.4534 80.6189 77.5308 80.4098 77.9917 80.4098C78.3882 80.4098 78.3947 80.3986 78.3945 79.6997C78.3945 79.1863 78.2795 78.7461 77.9796 78.1105C77.4355 76.9575 76.6123 74.9732 76.0233 73.3943C75.3483 71.5853 75.0383 71.0595 72.7451 67.8313C71.9682 66.7374 71.4444 65.7501 70.844 64.2471C70.6178 63.681 70.5867 63.3825 70.6525 62.4139C70.6956 61.7776 70.8205 61.0015 70.93 60.6892C71.2221 59.8558 71.4367 58.5403 71.4254 57.6536C71.4159 56.9064 71.5596 56.6409 71.7308 57.0898ZM116.502 84.4072C116.404 85.4624 115.931 86.4273 115.297 86.8643C114.795 87.2103 112.918 87.4686 112.918 87.1919C112.918 87.1068 113.041 87.0372 113.191 87.0372C113.63 87.0372 114.787 86.3838 115.323 85.8336C115.595 85.5544 115.896 85.0603 115.993 84.7356C116.437 83.2419 116.621 83.1234 116.502 84.4072Z" fill="#FB1F1D"/>
<path fill-rule="evenodd" clip-rule="evenodd" d="M68.8045 17.3947C67.3131 17.9111 65.9041 18.9789 65.2522 20.0869C64.6928 21.0375 64.5528 21.546 64.4706 22.9275C64.3731 24.5643 64.6178 25.8625 65.4085 27.9032C65.6772 28.5967 65.9344 29.5451 65.9828 30.0203C66.0917 31.0907 65.9514 32.114 65.6812 32.2183C65.3851 32.3327 64.4742 31.3754 64.048 30.5016C63.6889 29.7653 63.6852 29.7288 63.6852 26.9289C63.6852 25.05 63.6372 24.084 63.5422 24.052C63.3153 23.9754 62.1546 25.2951 61.861 25.9632C61.6708 26.3963 61.5568 27.0956 61.4645 28.3959C61.3452 30.0777 61.3034 30.2707 60.9317 30.861C60.3279 31.8195 60.4186 32.6035 61.2183 33.3388C61.5204 33.6168 61.8367 33.7521 62.3272 33.8136C63.0761 33.9074 63.8867 34.2634 63.8867 34.4985C63.8867 34.58 63.4634 34.9379 62.9462 35.2938C61.8371 36.0567 61.4328 36.5101 60.9546 37.527C60.6093 38.2612 60.6006 38.3464 60.5816 41.1866C60.5709 42.7859 60.4933 44.551 60.4089 45.1089C60.1792 46.6283 60.4495 47.8482 61.4873 49.978C63.9161 54.962 64.0367 56.1795 62.3739 58.9285C62.2084 59.2019 61.8538 59.7873 61.5857 60.2293C60.7715 61.5718 60.5282 62.3976 60.5298 63.8127C60.5321 65.7775 61.1786 67.4315 62.5095 68.8768C62.9361 69.3402 63.3852 69.9184 63.5073 70.1617C63.6294 70.4049 63.9181 70.9906 64.1486 71.463C64.7915 72.7798 66.2689 74.6777 67.9797 76.3842C68.8316 77.2341 69.5287 78.031 69.5287 78.1552C69.5287 78.4313 69.5886 78.4334 68.1305 78.1088C65.8169 77.5939 63.6021 77.6212 61.7373 78.1878C61.331 78.3112 60.3335 78.6277 59.5208 78.8911C58.3262 79.2782 57.7686 79.382 56.6091 79.4334C55.0768 79.5013 54.3282 79.4186 54.051 79.1506C52.8442 77.9837 51.7596 77.4896 50.918 77.7236C50.1873 77.9267 49.7318 78.2465 48.5745 79.3686C47.2061 80.6957 47.1143 80.7504 45.1297 81.4223C44.0601 81.7845 43.3009 82.125 43.067 82.3472C42.8633 82.5406 42.5228 82.7761 42.31 82.8703C41.6918 83.1442 41.5885 83.4 41.9188 83.8389C42.2021 84.2156 44.0179 84.4939 46.2218 84.4985C47.8209 84.5017 48.2986 84.4502 49.4128 84.1544C50.1335 83.963 50.7916 83.7638 50.8752 83.7117C50.9589 83.6597 51.5783 83.506 52.2516 83.3705C53.6159 83.0957 55.9228 83.0425 57.3043 83.254C61.2592 83.8597 65.3904 84.0146 68.7898 83.6848C69.6764 83.5988 70.9868 83.4976 71.7018 83.46C73.9566 83.3416 74.7677 83.1918 74.7677 82.894C74.7677 82.7174 74.6645 82.6936 74.1967 82.7623C73.5523 82.8571 71.8357 82.4538 71.9467 82.2337C72.0181 82.0919 72.0432 82.0922 73.8684 82.2456C74.8649 82.3293 75.123 82.4024 75.5062 82.709C76.6027 83.5862 79.0784 84.1466 83.3003 84.4732L85.3178 84.6293L86.9273 83.9978C87.8125 83.6503 88.8089 83.2639 89.1413 83.1391C89.4738 83.0142 89.766 82.8663 89.7906 82.8106C89.8153 82.7547 89.9264 82.7091 90.0375 82.7091C90.2852 82.7091 91.9309 81.794 92.2365 81.4863C92.7383 80.9811 93.7047 80.4186 94.4407 80.2032C95.7308 79.8255 96.2497 79.5318 96.6891 78.9303L97.1064 78.359L97.8591 78.4231C98.7045 78.4952 99.0157 78.5601 100.358 78.9454C101.647 79.3152 102.169 79.5589 102.454 79.9226C102.895 80.488 104.154 81.2484 105.083 81.5115C105.588 81.6543 106.579 81.8081 107.285 81.8532C108.385 81.9236 108.71 81.8921 109.534 81.6352C110.064 81.4699 110.532 81.2788 110.574 81.2105C110.616 81.1421 110.738 81.0861 110.844 81.0861C111.093 81.0861 111.086 81.4837 110.832 81.822C110.723 81.9664 110.635 82.1915 110.635 82.3223C110.635 82.4531 110.42 82.7253 110.157 82.9271C109.743 83.2449 109.549 83.2954 108.713 83.3034C107.668 83.3133 105.389 82.9393 104.523 82.6158C103.516 82.2401 102.575 82.1214 101.881 82.2829C100.268 82.6579 98.7814 84.2252 98.2157 86.1474C97.8929 87.2444 98.2583 87.3465 99.2687 86.4415C99.9667 85.8163 100.427 85.6885 101.99 85.6859C102.907 85.6843 104.336 86.2765 105.529 87.1526C107.406 88.5317 108.835 88.9898 111.239 88.9836C112.98 88.9791 114.782 88.6752 115.624 88.2439C116.672 87.7072 117.554 86.2671 117.797 84.6968C118.159 82.347 116.936 79.5212 115.135 78.5478C114.894 78.418 114.366 78.3218 113.824 78.3095C113.325 78.2983 112.877 78.2488 112.828 78.1995C112.779 78.1504 112.803 77.9732 112.881 77.8059C113.62 76.2254 113.416 74.1484 112.349 72.3954C111.828 71.539 111.559 71.2851 110.769 70.907C110.231 70.6495 109.926 70.6167 108.005 70.6108L105.845 70.604L105.184 70.168C104.82 69.928 104.32 69.6249 104.073 69.4943L103.624 69.2568L103.357 69.6261C103.143 69.9222 102.983 69.9954 102.551 69.9954C102.21 69.9954 101.858 70.1053 101.595 70.294C101.279 70.5206 100.982 70.594 100.367 70.5983L99.5546 70.604L99.3664 71.3127C99.198 71.9468 99.2029 72.1037 99.4134 72.8005C99.5429 73.229 99.6551 73.6815 99.6629 73.8064C99.6705 73.9311 99.7244 74.0036 99.7824 73.9675C99.8405 73.9312 99.888 74.0271 99.888 74.1802C99.888 74.5688 99.7239 74.5319 98.9144 73.9612C97.322 72.8384 97.2374 72.6644 97.1719 70.3814C97.1255 68.759 97.1022 68.637 96.7203 68.0145C96.2642 67.2711 95.4732 66.767 94.5147 66.6093C93.9819 66.5217 92.7205 66.6525 91.0506 66.9684C90.7186 67.0313 90.3521 66.94 89.573 66.6007C89.0031 66.3523 88.5167 66.1017 88.4921 66.0436C88.4674 65.9854 88.3946 65.9378 88.3301 65.9378C88.0536 65.9378 87.0963 65.1453 85.7553 63.8068C84.9644 63.0172 84.2088 62.3114 84.0762 62.2386C83.9436 62.1659 83.4922 61.8424 83.073 61.5199C82.6537 61.1973 82.2457 60.9335 82.1662 60.9335C81.9219 60.9335 82.0054 60.6148 82.3576 60.2023C82.5424 59.9861 82.6936 59.6818 82.6939 59.526C82.6941 59.3703 82.815 59.0436 82.9625 58.8C83.272 58.2889 83.325 57.1928 83.0581 56.8252C82.9627 56.6937 82.6322 56.5532 82.3192 56.511C81.6128 56.4156 81.5897 56.167 82.2568 55.8388C82.6389 55.6508 82.7605 55.5093 82.7605 55.2528C82.7605 54.9639 82.6725 54.8935 82.156 54.7684L81.5515 54.6222L81.4534 53.5511C81.2126 50.9215 80.7842 46.8047 80.6053 45.4013C80.4977 44.5579 80.4097 43.3445 80.4097 42.7051C80.4097 41.1785 80.1402 40.5924 79.1267 39.9148C78.3013 39.3631 73.4022 36.8896 71.7452 36.188C71.1541 35.9378 70.2884 35.5603 69.8215 35.3491C69.3546 35.1378 68.9436 34.965 68.9083 34.965C68.6093 34.965 66.9051 33.6391 67.0354 33.5077C67.1094 33.4332 68.3553 34.0274 69.2613 34.5693C70.2072 35.1351 70.469 35.1586 70.469 34.6777C70.469 34.3423 71.0015 33.0714 71.1421 33.0714C71.1986 33.0714 71.6294 33.2521 72.0995 33.473C72.5696 33.6939 73.2866 33.913 73.693 33.96C74.668 34.073 75.0253 33.7908 75.6488 32.4156C75.9068 31.8464 76.207 31.2085 76.316 30.9979C76.4249 30.7873 76.514 30.4249 76.514 30.1928C76.514 29.9019 76.6465 29.633 76.9397 29.3283L77.3655 28.886L77.0758 27.7045L76.786 26.5229L77.1425 26.1484C77.4226 25.8539 77.511 25.6067 77.5555 24.9931C77.5867 24.5636 77.7272 23.8752 77.8678 23.4632C78.3009 22.1935 78.3321 21.5704 77.9953 20.9057C77.6413 20.2073 77.3541 19.9261 75.7694 18.7272C74.3747 17.672 73.896 17.4603 72.4449 17.2577C70.8743 17.0385 69.7064 17.0824 68.8045 17.3947ZM74.5832 41.8967C74.9419 42.1383 75.2558 42.4451 75.281 42.5782C75.3061 42.7113 75.1926 43.0765 75.0288 43.3897C74.6767 44.0626 73.961 46.4785 73.9633 46.9861C73.9641 47.1811 73.8194 47.797 73.6418 48.355C73.4641 48.9129 73.1839 49.7954 73.019 50.3161C72.8542 50.8368 72.7425 51.3831 72.7708 51.5302C72.8002 51.683 73.368 52.1829 74.0972 52.6978C75.5269 53.7073 76.3797 54.4634 76.3797 54.7214C76.3797 54.8328 76.2721 54.798 76.0774 54.6239C75.9111 54.4751 75.4125 54.1216 74.9692 53.838C74.5259 53.5545 73.8557 53.1145 73.4797 52.8602C73.1038 52.606 72.2273 52.1945 71.5318 51.9459C69.8833 51.3569 67.7743 50.3574 67.4931 50.0321C67.3354 49.8496 67.2287 49.304 67.1256 48.1521C67.0456 47.2594 66.8237 45.9508 66.6323 45.2442C66.441 44.5375 66.2548 43.8071 66.2188 43.6211L66.1531 43.283L66.4788 43.6671C66.9529 44.2268 67.4893 45.6383 67.656 46.7651C67.7358 47.3047 67.8616 48.1501 67.9356 48.6435L68.0699 49.5407L68.6069 49.6271C69.1373 49.7126 70.8295 50.5152 71.6108 51.0519C71.8325 51.2042 72.0877 51.3292 72.178 51.3296C72.351 51.3305 72.6312 50.4544 72.8914 49.0989C72.977 48.6525 73.2895 47.5318 73.5858 46.6083C74.2161 44.644 74.2322 43.8262 73.6681 42.4429C73.3346 41.6253 73.3491 41.4978 73.7786 41.4678C73.8625 41.462 74.2247 41.655 74.5832 41.8967ZM71.7308 57.0898C71.7757 57.2075 71.8123 57.8639 71.8123 58.5484C71.8123 59.4665 71.7383 60.0049 71.5304 60.6001C71.3291 61.1754 71.2425 61.7753 71.2281 62.6917C71.2105 63.8093 71.2571 64.1034 71.5864 64.9503C71.8952 65.7448 72.1185 66.0683 72.7998 66.7086C73.6958 67.5507 75.1739 68.3577 76.3202 68.6307C77.2651 68.8559 78.8149 68.9005 79.9965 68.7367C81.5882 68.516 83.009 68.9213 84.2778 69.9579C84.9178 70.4807 85.5353 71.2893 86.5123 72.8841C87.5409 74.563 89.8017 76.758 90.5021 76.758C91.0135 76.758 90.9915 76.9625 90.4559 77.1862C88.9969 77.7959 86.0995 79.5011 85.0901 80.3438C84.7515 80.6265 84.5623 80.6471 81.4377 80.7405C79.6253 80.7948 78.0179 80.7992 77.8655 80.7505C77.4534 80.6189 77.5308 80.4098 77.9917 80.4098C78.3882 80.4098 78.3947 80.3986 78.3945 79.6997C78.3945 79.1863 78.2795 78.7461 77.9796 78.1105C77.4355 76.9575 76.6123 74.9732 76.0233 73.3943C75.3483 71.5853 75.0383 71.0595 72.7451 67.8313C71.9682 66.7374 71.4444 65.7501 70.844 64.2471C70.6178 63.681 70.5867 63.3825 70.6525 62.4139C70.6956 61.7776 70.8205 61.0015 70.93 60.6892C71.2221 59.8558 71.4367 58.5403 71.4254 57.6536C71.4159 56.9064 71.5596 56.6409 71.7308 57.0898ZM116.502 84.4072C116.404 85.4624 115.931 86.4273 115.297 86.8643C114.795 87.2103 112.918 87.4686 112.918 87.1919C112.918 87.1068 113.041 87.0372 113.191 87.0372C113.63 87.0372 114.787 86.3838 115.323 85.8336C115.595 85.5544 115.896 85.0603 115.993 84.7356C116.437 83.2419 116.621 83.1234 116.502 84.4072Z" fill="url(#paint0_radial_316_849)" fill-opacity="0.7"/>
<path fill-rule="evenodd" clip-rule="evenodd" d="M68.8045 17.3947C67.3131 17.9111 65.9041 18.9789 65.2522 20.0869C64.6928 21.0375 64.5528 21.546 64.4706 22.9275C64.3731 24.5643 64.6178 25.8625 65.4085 27.9032C65.6772 28.5967 65.9344 29.5451 65.9828 30.0203C66.0917 31.0907 65.9514 32.114 65.6812 32.2183C65.3851 32.3327 64.4742 31.3754 64.048 30.5016C63.6889 29.7653 63.6852 29.7288 63.6852 26.9289C63.6852 25.05 63.6372 24.084 63.5422 24.052C63.3153 23.9754 62.1546 25.2951 61.861 25.9632C61.6708 26.3963 61.5568 27.0956 61.4645 28.3959C61.3452 30.0777 61.3034 30.2707 60.9317 30.861C60.3279 31.8195 60.4186 32.6035 61.2183 33.3388C61.5204 33.6168 61.8367 33.7521 62.3272 33.8136C63.0761 33.9074 63.8867 34.2634 63.8867 34.4985C63.8867 34.58 63.4634 34.9379 62.9462 35.2938C61.8371 36.0567 61.4328 36.5101 60.9546 37.527C60.6093 38.2612 60.6006 38.3464 60.5816 41.1866C60.5709 42.7859 60.4933 44.551 60.4089 45.1089C60.1792 46.6283 60.4495 47.8482 61.4873 49.978C63.9161 54.962 64.0367 56.1795 62.3739 58.9285C62.2084 59.2019 61.8538 59.7873 61.5857 60.2293C60.7715 61.5718 60.5282 62.3976 60.5298 63.8127C60.5321 65.7775 61.1786 67.4315 62.5095 68.8768C62.9361 69.3402 63.3852 69.9184 63.5073 70.1617C63.6294 70.4049 63.9181 70.9906 64.1486 71.463C64.7915 72.7798 66.2689 74.6777 67.9797 76.3842C68.8316 77.2341 69.5287 78.031 69.5287 78.1552C69.5287 78.4313 69.5886 78.4334 68.1305 78.1088C65.8169 77.5939 63.6021 77.6212 61.7373 78.1878C61.331 78.3112 60.3335 78.6277 59.5208 78.8911C58.3262 79.2782 57.7686 79.382 56.6091 79.4334C55.0768 79.5013 54.3282 79.4186 54.051 79.1506C52.8442 77.9837 51.7596 77.4896 50.918 77.7236C50.1873 77.9267 49.7318 78.2465 48.5745 79.3686C47.2061 80.6957 47.1143 80.7504 45.1297 81.4223C44.0601 81.7845 43.3009 82.125 43.067 82.3472C42.8633 82.5406 42.5228 82.7761 42.31 82.8703C41.6918 83.1442 41.5885 83.4 41.9188 83.8389C42.2021 84.2156 44.0179 84.4939 46.2218 84.4985C47.8209 84.5017 48.2986 84.4502 49.4128 84.1544C50.1335 83.963 50.7916 83.7638 50.8752 83.7117C50.9589 83.6597 51.5783 83.506 52.2516 83.3705C53.6159 83.0957 55.9228 83.0425 57.3043 83.254C61.2592 83.8597 65.3904 84.0146 68.7898 83.6848C69.6764 83.5988 70.9868 83.4976 71.7018 83.46C73.9566 83.3416 74.7677 83.1918 74.7677 82.894C74.7677 82.7174 74.6645 82.6936 74.1967 82.7623C73.5523 82.8571 71.8357 82.4538 71.9467 82.2337C72.0181 82.0919 72.0432 82.0922 73.8684 82.2456C74.8649 82.3293 75.123 82.4024 75.5062 82.709C76.6027 83.5862 79.0784 84.1466 83.3003 84.4732L85.3178 84.6293L86.9273 83.9978C87.8125 83.6503 88.8089 83.2639 89.1413 83.1391C89.4738 83.0142 89.766 82.8663 89.7906 82.8106C89.8153 82.7547 89.9264 82.7091 90.0375 82.7091C90.2852 82.7091 91.9309 81.794 92.2365 81.4863C92.7383 80.9811 93.7047 80.4186 94.4407 80.2032C95.7308 79.8255 96.2497 79.5318 96.6891 78.9303L97.1064 78.359L97.8591 78.4231C98.7045 78.4952 99.0157 78.5601 100.358 78.9454C101.647 79.3152 102.169 79.5589 102.454 79.9226C102.895 80.488 104.154 81.2484 105.083 81.5115C105.588 81.6543 106.579 81.8081 107.285 81.8532C108.385 81.9236 108.71 81.8921 109.534 81.6352C110.064 81.4699 110.532 81.2788 110.574 81.2105C110.616 81.1421 110.738 81.0861 110.844 81.0861C111.093 81.0861 111.086 81.4837 110.832 81.822C110.723 81.9664 110.635 82.1915 110.635 82.3223C110.635 82.4531 110.42 82.7253 110.157 82.9271C109.743 83.2449 109.549 83.2954 108.713 83.3034C107.668 83.3133 105.389 82.9393 104.523 82.6158C103.516 82.2401 102.575 82.1214 101.881 82.2829C100.268 82.6579 98.7814 84.2252 98.2157 86.1474C97.8929 87.2444 98.2583 87.3465 99.2687 86.4415C99.9667 85.8163 100.427 85.6885 101.99 85.6859C102.907 85.6843 104.336 86.2765 105.529 87.1526C107.406 88.5317 108.835 88.9898 111.239 88.9836C112.98 88.9791 114.782 88.6752 115.624 88.2439C116.672 87.7072 117.554 86.2671 117.797 84.6968C118.159 82.347 116.936 79.5212 115.135 78.5478C114.894 78.418 114.366 78.3218 113.824 78.3095C113.325 78.2983 112.877 78.2488 112.828 78.1995C112.779 78.1504 112.803 77.9732 112.881 77.8059C113.62 76.2254 113.416 74.1484 112.349 72.3954C111.828 71.539 111.559 71.2851 110.769 70.907C110.231 70.6495 109.926 70.6167 108.005 70.6108L105.845 70.604L105.184 70.168C104.82 69.928 104.32 69.6249 104.073 69.4943L103.624 69.2568L103.357 69.6261C103.143 69.9222 102.983 69.9954 102.551 69.9954C102.21 69.9954 101.858 70.1053 101.595 70.294C101.279 70.5206 100.982 70.594 100.367 70.5983L99.5546 70.604L99.3664 71.3127C99.198 71.9468 99.2029 72.1037 99.4134 72.8005C99.5429 73.229 99.6551 73.6815 99.6629 73.8064C99.6705 73.9311 99.7244 74.0036 99.7824 73.9675C99.8405 73.9312 99.888 74.0271 99.888 74.1802C99.888 74.5688 99.7239 74.5319 98.9144 73.9612C97.322 72.8384 97.2374 72.6644 97.1719 70.3814C97.1255 68.759 97.1022 68.637 96.7203 68.0145C96.2642 67.2711 95.4732 66.767 94.5147 66.6093C93.9819 66.5217 92.7205 66.6525 91.0506 66.9684C90.7186 67.0313 90.3521 66.94 89.573 66.6007C89.0031 66.3523 88.5167 66.1017 88.4921 66.0436C88.4674 65.9854 88.3946 65.9378 88.3301 65.9378C88.0536 65.9378 87.0963 65.1453 85.7553 63.8068C84.9644 63.0172 84.2088 62.3114 84.0762 62.2386C83.9436 62.1659 83.4922 61.8424 83.073 61.5199C82.6537 61.1973 82.2457 60.9335 82.1662 60.9335C81.9219 60.9335 82.0054 60.6148 82.3576 60.2023C82.5424 59.9861 82.6936 59.6818 82.6939 59.526C82.6941 59.3703 82.815 59.0436 82.9625 58.8C83.272 58.2889 83.325 57.1928 83.0581 56.8252C82.9627 56.6937 82.6322 56.5532 82.3192 56.511C81.6128 56.4156 81.5897 56.167 82.2568 55.8388C82.6389 55.6508 82.7605 55.5093 82.7605 55.2528C82.7605 54.9639 82.6725 54.8935 82.156 54.7684L81.5515 54.6222L81.4534 53.5511C81.2126 50.9215 80.7842 46.8047 80.6053 45.4013C80.4977 44.5579 80.4097 43.3445 80.4097 42.7051C80.4097 41.1785 80.1402 40.5924 79.1267 39.9148C78.3013 39.3631 73.4022 36.8896 71.7452 36.188C71.1541 35.9378 70.2884 35.5603 69.8215 35.3491C69.3546 35.1378 68.9436 34.965 68.9083 34.965C68.6093 34.965 66.9051 33.6391 67.0354 33.5077C67.1094 33.4332 68.3553 34.0274 69.2613 34.5693C70.2072 35.1351 70.469 35.1586 70.469 34.6777C70.469 34.3423 71.0015 33.0714 71.1421 33.0714C71.1986 33.0714 71.6294 33.2521 72.0995 33.473C72.5696 33.6939 73.2866 33.913 73.693 33.96C74.668 34.073 75.0253 33.7908 75.6488 32.4156C75.9068 31.8464 76.207 31.2085 76.316 30.9979C76.4249 30.7873 76.514 30.4249 76.514 30.1928C76.514 29.9019 76.6465 29.633 76.9397 29.3283L77.3655 28.886L77.0758 27.7045L76.786 26.5229L77.1425 26.1484C77.4226 25.8539 77.511 25.6067 77.5555 24.9931C77.5867 24.5636 77.7272 23.8752 77.8678 23.4632C78.3009 22.1935 78.3321 21.5704 77.9953 20.9057C77.6413 20.2073 77.3541 19.9261 75.7694 18.7272C74.3747 17.672 73.896 17.4603 72.4449 17.2577C70.8743 17.0385 69.7064 17.0824 68.8045 17.3947ZM74.5832 41.8967C74.9419 42.1383 75.2558 42.4451 75.281 42.5782C75.3061 42.7113 75.1926 43.0765 75.0288 43.3897C74.6767 44.0626 73.961 46.4785 73.9633 46.9861C73.9641 47.1811 73.8194 47.797 73.6418 48.355C73.4641 48.9129 73.1839 49.7954 73.019 50.3161C72.8542 50.8368 72.7425 51.3831 72.7708 51.5302C72.8002 51.683 73.368 52.1829 74.0972 52.6978C75.5269 53.7073 76.3797 54.4634 76.3797 54.7214C76.3797 54.8328 76.2721 54.798 76.0774 54.6239C75.9111 54.4751 75.4125 54.1216 74.9692 53.838C74.5259 53.5545 73.8557 53.1145 73.4797 52.8602C73.1038 52.606 72.2273 52.1945 71.5318 51.9459C69.8833 51.3569 67.7743 50.3574 67.4931 50.0321C67.3354 49.8496 67.2287 49.304 67.1256 48.1521C67.0456 47.2594 66.8237 45.9508 66.6323 45.2442C66.441 44.5375 66.2548 43.8071 66.2188 43.6211L66.1531 43.283L66.4788 43.6671C66.9529 44.2268 67.4893 45.6383 67.656 46.7651C67.7358 47.3047 67.8616 48.1501 67.9356 48.6435L68.0699 49.5407L68.6069 49.6271C69.1373 49.7126 70.8295 50.5152 71.6108 51.0519C71.8325 51.2042 72.0877 51.3292 72.178 51.3296C72.351 51.3305 72.6312 50.4544 72.8914 49.0989C72.977 48.6525 73.2895 47.5318 73.5858 46.6083C74.2161 44.644 74.2322 43.8262 73.6681 42.4429C73.3346 41.6253 73.3491 41.4978 73.7786 41.4678C73.8625 41.462 74.2247 41.655 74.5832 41.8967ZM71.7308 57.0898C71.7757 57.2075 71.8123 57.8639 71.8123 58.5484C71.8123 59.4665 71.7383 60.0049 71.5304 60.6001C71.3291 61.1754 71.2425 61.7753 71.2281 62.6917C71.2105 63.8093 71.2571 64.1034 71.5864 64.9503C71.8952 65.7448 72.1185 66.0683 72.7998 66.7086C73.6958 67.5507 75.1739 68.3577 76.3202 68.6307C77.2651 68.8559 78.8149 68.9005 79.9965 68.7367C81.5882 68.516 83.009 68.9213 84.2778 69.9579C84.9178 70.4807 85.5353 71.2893 86.5123 72.8841C87.5409 74.563 89.8017 76.758 90.5021 76.758C91.0135 76.758 90.9915 76.9625 90.4559 77.1862C88.9969 77.7959 86.0995 79.5011 85.0901 80.3438C84.7515 80.6265 84.5623 80.6471 81.4377 80.7405C79.6253 80.7948 78.0179 80.7992 77.8655 80.7505C77.4534 80.6189 77.5308 80.4098 77.9917 80.4098C78.3882 80.4098 78.3947 80.3986 78.3945 79.6997C78.3945 79.1863 78.2795 78.7461 77.9796 78.1105C77.4355 76.9575 76.6123 74.9732 76.0233 73.3943C75.3483 71.5853 75.0383 71.0595 72.7451 67.8313C71.9682 66.7374 71.4444 65.7501 70.844 64.2471C70.6178 63.681 70.5867 63.3825 70.6525 62.4139C70.6956 61.7776 70.8205 61.0015 70.93 60.6892C71.2221 59.8558 71.4367 58.5403 71.4254 57.6536C71.4159 56.9064 71.5596 56.6409 71.7308 57.0898ZM116.502 84.4072C116.404 85.4624 115.931 86.4273 115.297 86.8643C114.795 87.2103 112.918 87.4686 112.918 87.1919C112.918 87.1068 113.041 87.0372 113.191 87.0372C113.63 87.0372 114.787 86.3838 115.323 85.8336C115.595 85.5544 115.896 85.0603 115.993 84.7356C116.437 83.2419 116.621 83.1234 116.502 84.4072Z" fill="url(#paint1_radial_316_849)"/>
</g>
<defs>
<filter id="filter0_d_316_849" x="0.920694" y="0.232676" width="163.382" height="159.119" filterUnits="userSpaceOnUse" color-interpolation-filters="sRGB">
<feFlood flood-opacity="0" result="BackgroundImageFix"/>
<feColorMatrix in="SourceAlpha" type="matrix" values="0 0 0 0 0 0 0 0 0 0 0 0 0 0 0 0 0 0 127 0" result="hardAlpha"/>
<feOffset dx="2.81474" dy="26.74"/>
<feGaussianBlur stdDeviation="21.8142"/>
<feColorMatrix type="matrix" values="0 0 0 0 0.980392 0 0 0 0 0.14902 0 0 0 0 0.141176 0 0 0 0.5 0"/>
<feBlend mode="normal" in2="BackgroundImageFix" result="effect1_dropShadow_316_849"/>
<feBlend mode="normal" in="SourceGraphic" in2="effect1_dropShadow_316_849" result="shape"/>
</filter>
<radialGradient id="paint0_radial_316_849" cx="0" cy="0" r="1" gradientUnits="userSpaceOnUse" gradientTransform="translate(61.8232 32.0925) rotate(49.4207) scale(61.7642 62.4143)">
<stop stop-color="white" stop-opacity="0.59"/>
<stop offset="0.697917" stop-color="white" stop-opacity="0"/>
<stop offset="1" stop-color="white" stop-opacity="0"/>
</radialGradient>
<radialGradient id="paint1_radial_316_849" cx="0" cy="0" r="1" gradientUnits="userSpaceOnUse" gradientTransform="translate(107.432 80.0009) rotate(-93.8876) scale(61.5242 72.6031)">
<stop stop-opacity="0.23"/>
<stop offset="0.861815" stop-opacity="0"/>
</radialGradient>
</defs>
</svg>
