<svg width="107" height="101" viewBox="0 0 107 101" fill="none" xmlns="http://www.w3.org/2000/svg">
<path fill-rule="evenodd" clip-rule="evenodd" d="M38.0487 0.384552C35.9525 1.11032 33.9721 2.6111 33.0557 4.16834C32.2695 5.5043 32.0728 6.21905 31.9572 8.16065C31.8201 10.4611 32.1642 12.2856 33.2755 15.1538C33.6531 16.1285 34.0147 17.4615 34.0827 18.1293C34.2358 19.6337 34.0385 21.0719 33.6588 21.2185C33.2427 21.3793 31.9623 20.0338 31.3632 18.8058C30.8585 17.7709 30.8532 17.7196 30.8532 13.7845C30.8532 11.1438 30.7858 9.78613 30.6523 9.74108C30.3334 9.63348 28.7019 11.4882 28.2893 12.4273C28.022 13.0359 27.8616 14.0187 27.7319 15.8463C27.5643 18.2101 27.5055 18.4813 26.9831 19.3109C26.1344 20.6581 26.2618 21.7598 27.3858 22.7934C27.8105 23.184 28.2551 23.3743 28.9445 23.4606C29.9971 23.5925 31.1364 24.0928 31.1364 24.4232C31.1364 24.5378 30.5415 25.0408 29.8146 25.541C28.2557 26.6133 27.6874 27.2505 27.0152 28.6798C26.5299 29.7116 26.5177 29.8313 26.491 33.8231C26.4759 36.0709 26.3668 38.5516 26.2482 39.3357C25.9254 41.4712 26.3053 43.1857 27.764 46.1791C31.1778 53.184 31.3473 54.895 29.0102 58.7586C28.7776 59.143 28.2791 59.9657 27.9022 60.5869C26.7578 62.4738 26.4159 63.6343 26.4182 65.6232C26.4214 68.3847 27.3301 70.7093 29.2007 72.7406C29.8004 73.3919 30.4316 74.2045 30.6032 74.5465C30.7749 74.8883 31.1806 75.7114 31.5046 76.3754C32.4083 78.2261 34.4849 80.8935 36.8894 83.2919C38.0869 84.4864 39.0666 85.6064 39.0666 85.7809C39.0666 86.1691 39.1509 86.172 37.1015 85.7157C33.8495 84.9921 30.7365 85.0305 28.1154 85.8268C27.5443 86.0003 26.1423 86.4451 25 86.8152C23.3209 87.3593 22.5371 87.5053 20.9074 87.5775C18.7536 87.6729 17.7014 87.5566 17.3118 87.18C15.6155 85.5399 14.091 84.8455 12.9081 85.1744C11.8812 85.4599 11.2409 85.9093 9.61426 87.4865C7.69081 89.3516 7.56185 89.4284 4.77231 90.3728C3.26897 90.8819 2.20179 91.3603 1.87306 91.6727C1.58682 91.9445 1.10818 92.2754 0.809096 92.4079C-0.0598275 92.7929 -0.205026 93.1523 0.259268 93.7692C0.657477 94.2986 3.20968 94.6898 6.30737 94.6963C8.55501 94.7008 9.22644 94.6284 10.7925 94.2127C11.8054 93.9437 12.7305 93.6637 12.8481 93.5905C12.9657 93.5173 13.8363 93.3014 14.7827 93.1109C16.7003 92.7246 19.9428 92.6499 21.8845 92.9472C27.4434 93.7985 33.25 94.0161 38.0282 93.5527C39.2743 93.4318 41.1162 93.2896 42.1211 93.2367C45.2903 93.0702 46.4304 92.8598 46.4304 92.4412C46.4304 92.1929 46.2854 92.1595 45.6279 92.2561C44.7222 92.3893 42.3093 91.8224 42.4653 91.5132C42.5657 91.314 42.6011 91.3143 45.1665 91.5299C46.5671 91.6476 46.9298 91.7502 47.4685 92.1812C49.0096 93.4141 52.4895 94.2017 58.4235 94.6607L61.2593 94.8801L63.5215 93.9925C64.7658 93.5042 66.1662 92.9611 66.6335 92.7856C67.1008 92.6102 67.5115 92.4022 67.5461 92.3239C67.5808 92.2454 67.737 92.1814 67.8931 92.1814C68.2413 92.1814 70.5544 90.8952 70.984 90.4627C71.6892 89.7527 73.0475 88.9621 74.0821 88.6593C75.8954 88.1286 76.6248 87.7157 77.2424 86.8704L77.8289 86.0674L78.8868 86.1575C80.0752 86.2588 80.5125 86.3501 82.3995 86.8917C84.2108 87.4114 84.9453 87.7539 85.3448 88.2651C85.9655 89.0597 87.7345 90.1283 89.0405 90.4981C89.7497 90.6988 91.1426 90.915 92.1361 90.9784C93.6812 91.0773 94.1383 91.033 95.297 90.672C96.0419 90.4397 96.6997 90.1711 96.7588 90.0751C96.8177 89.9789 96.9884 89.9002 97.1382 89.9002C97.4875 89.9002 97.4782 90.4591 97.121 90.9345C96.9686 91.1376 96.8438 91.4539 96.8438 91.6377C96.8438 91.8215 96.5415 92.2042 96.172 92.4878C95.5907 92.9343 95.3173 93.0054 94.1423 93.0166C92.6735 93.0305 89.4706 92.5049 88.2528 92.0502C86.8382 91.5221 85.5159 91.3554 84.5394 91.5824C82.2724 92.1093 80.1832 94.3121 79.3881 97.0137C78.9344 98.5555 79.448 98.699 80.8682 97.4271C81.8493 96.5483 82.4958 96.3687 84.6929 96.3651C85.9821 96.3628 87.9905 97.1952 89.6668 98.4264C92.3055 100.365 94.3137 101.009 97.6935 101C100.141 100.994 102.673 100.566 103.857 99.9603C105.33 99.206 106.569 97.1819 106.91 94.9749C107.42 91.6725 105.701 87.7009 103.169 86.3328C102.831 86.1503 102.088 86.0151 101.327 85.9978C100.625 85.9821 99.9949 85.9125 99.9262 85.8433C99.8575 85.7743 99.8913 85.5253 100.001 85.2901C101.039 83.0687 100.752 80.1497 99.2536 77.6859C98.5212 76.4822 98.1425 76.1254 97.0326 75.5939C96.277 75.232 95.8471 75.186 93.1472 75.1776L90.1115 75.1681L89.1821 74.5553C88.671 74.218 87.9686 73.792 87.6212 73.6084L86.9898 73.2746L86.6142 73.7937C86.3131 74.2099 86.0888 74.3127 85.4812 74.3127C85.0025 74.3127 84.508 74.4672 84.1381 74.7324C83.694 75.0508 83.2769 75.154 82.4112 75.1601L81.27 75.1681L81.0055 76.1642C80.7687 77.0553 80.7757 77.2758 81.0716 78.2552C81.2536 78.8574 81.4113 79.4935 81.4222 79.6689C81.433 79.8442 81.5087 79.9461 81.5903 79.8953C81.6718 79.8444 81.7387 79.9791 81.7387 80.1943C81.7387 80.7405 81.5079 80.6886 80.3701 79.8866C78.1319 78.3084 78.013 78.064 77.921 74.8552C77.8557 72.5751 77.823 72.4036 77.2862 71.5286C76.6452 70.4839 75.5333 69.7754 74.1861 69.5537C73.4373 69.4306 71.6643 69.6144 69.3171 70.0584C68.8504 70.1468 68.3353 70.0185 67.2402 69.5416C66.4392 69.1926 65.7555 68.8403 65.721 68.7586C65.6862 68.6768 65.5839 68.6099 65.4933 68.6099C65.1047 68.6099 63.759 67.4962 61.8743 65.6148C60.7625 64.5051 59.7005 63.5132 59.5141 63.4109C59.3277 63.3086 58.6933 62.8539 58.104 62.4008C57.5147 61.9474 56.9413 61.5765 56.8295 61.5765C56.4861 61.5765 56.6035 61.1287 57.0986 60.5489C57.3582 60.2451 57.5708 59.8174 57.5712 59.5984C57.5716 59.3796 57.7415 58.9204 57.9488 58.578C58.3839 57.8597 58.4582 56.3191 58.0831 55.8025C57.949 55.6177 57.4845 55.4202 57.0446 55.3609C56.0516 55.2269 56.0191 54.8775 56.9568 54.4161C57.494 54.1519 57.6648 53.9531 57.6648 53.5927C57.6648 53.1866 57.5412 53.0876 56.8152 52.9117L55.9655 52.7063L55.8277 51.2009C55.4891 47.5051 54.887 41.7191 54.6355 39.7467C54.4843 38.5613 54.3606 36.856 54.3606 35.9572C54.3606 33.8117 53.9818 32.988 52.5572 32.0356C51.3972 31.2603 44.5111 27.7839 42.1821 26.7978C41.3513 26.4462 40.1346 25.9156 39.4783 25.6187C38.8219 25.3218 38.2444 25.0788 38.1947 25.0788C37.7744 25.0788 35.3791 23.2154 35.5622 23.0308C35.6663 22.9261 37.4173 23.7611 38.6909 24.5228C40.0203 25.318 40.3883 25.3511 40.3883 24.6751C40.3883 24.2037 41.1368 22.4176 41.3345 22.4176C41.4138 22.4176 42.0193 22.6715 42.6802 22.9819C43.3408 23.2924 44.3487 23.6003 44.9199 23.6665C46.2903 23.8252 46.7925 23.4287 47.6688 21.4958C48.0315 20.6959 48.4535 19.7992 48.6067 19.5033C48.7598 19.2073 48.885 18.698 48.885 18.3718C48.885 17.9629 49.0712 17.585 49.4833 17.1568L50.0819 16.5352L49.6746 14.8745L49.2673 13.2139L49.7684 12.6875C50.1621 12.2737 50.2864 11.9262 50.3489 11.0637C50.3927 10.4602 50.5902 9.49262 50.7879 8.9136C51.3966 7.12902 51.4404 6.25326 50.967 5.31915C50.4695 4.33752 50.0658 3.94232 47.8384 2.25734C45.8781 0.774241 45.2052 0.476747 43.1656 0.191989C40.958 -0.11615 39.3164 -0.0543701 38.0487 0.384552ZM46.1712 34.8211C46.6753 35.1608 47.1166 35.5919 47.1519 35.7789C47.1872 35.966 47.0276 36.4792 46.7975 36.9195C46.3026 37.8652 45.2966 41.2606 45.2998 41.974C45.3009 42.2481 45.0976 43.1138 44.8479 43.898C44.5981 44.6821 44.2043 45.9224 43.9726 46.6543C43.7409 47.3861 43.5838 48.1539 43.6237 48.3606C43.665 48.5754 44.4631 49.2779 45.488 50.0016C47.4976 51.4205 48.6962 52.4831 48.6962 52.8458C48.6962 53.0022 48.5449 52.9534 48.2713 52.7087C48.0376 52.4996 47.3367 52.0027 46.7136 51.6041C46.0905 51.2057 45.1485 50.5873 44.62 50.2299C44.0917 49.8726 42.8597 49.2943 41.8822 48.9449C39.5651 48.1171 36.6007 46.7123 36.2055 46.2551C35.9839 45.9987 35.834 45.2318 35.6889 43.6128C35.5766 42.3582 35.2647 40.5191 34.9956 39.5258C34.7267 38.5326 34.465 37.5061 34.4144 37.2447L34.3221 36.7695L34.7798 37.3094C35.4463 38.096 36.2003 40.0798 36.4346 41.6634C36.5467 42.4219 36.7235 43.61 36.8275 44.3034L37.0163 45.5645L37.771 45.686C38.5166 45.8061 40.8951 46.9341 41.9933 47.6884C42.3048 47.9024 42.6636 48.0781 42.7904 48.0787C43.0336 48.08 43.4275 46.8486 43.7932 44.9435C43.9135 44.3162 44.3527 42.7411 44.7692 41.4431C45.6551 38.6824 45.6778 37.5329 44.885 35.5888C44.4161 34.4397 44.4365 34.2605 45.0402 34.2183C45.1582 34.2101 45.6672 34.4814 46.1712 34.8211ZM42.1619 56.1745C42.2249 56.3399 42.2765 57.2624 42.2765 58.2244C42.2765 59.5148 42.1724 60.2715 41.8802 61.1079C41.5973 61.9166 41.4755 62.7597 41.4553 64.0477C41.4306 65.6185 41.4961 66.0317 41.9589 67.2221C42.393 68.3387 42.7068 68.7934 43.6645 69.6933C44.9239 70.8768 47.0014 72.0111 48.6125 72.3947C49.9406 72.7112 52.119 72.7739 53.7798 72.5437C56.0171 72.2335 58.0142 72.8032 59.7975 74.26C60.697 74.9947 61.565 76.1313 62.9382 78.3727C64.384 80.7323 67.5617 83.8173 68.5462 83.8173C69.265 83.8173 69.2341 84.1047 68.4813 84.4191C66.4306 85.2761 62.358 87.6726 60.9393 88.857C60.4633 89.2543 60.1974 89.2832 55.8056 89.4146C53.2581 89.4908 50.9988 89.4971 50.7846 89.4286C50.2054 89.2437 50.3141 88.9498 50.9619 88.9498C51.5193 88.9498 51.5284 88.934 51.5282 87.9518C51.5282 87.2302 51.3666 86.6115 50.945 85.7182C50.1803 84.0977 49.0232 81.3088 48.1952 79.0897C47.2465 76.5472 46.8109 75.8083 43.5876 71.2712C42.4955 69.7338 41.7593 68.3461 40.9155 66.2338C40.5975 65.4381 40.5537 65.0185 40.6463 63.6573C40.7069 62.7629 40.8825 61.6721 41.0364 61.2332C41.4468 60.0619 41.7486 58.213 41.7327 56.9668C41.7193 55.9167 41.9213 55.5436 42.1619 56.1745ZM105.091 94.568C104.953 96.051 104.288 97.4072 103.397 98.0214C102.691 98.5076 100.054 98.8707 100.054 98.4818C100.054 98.3622 100.226 98.2643 100.438 98.2643C101.054 98.2643 102.681 97.346 103.434 96.5727C103.816 96.1803 104.239 95.4859 104.375 95.0295C105 92.9301 105.258 92.7636 105.091 94.568Z" fill="#FE0655"/>
</svg>
