<svg width="33" height="32" viewBox="0 0 33 32" fill="none" xmlns="http://www.w3.org/2000/svg">
<rect x="7.40625" y="6.65918" width="19.5665" height="16.9577" fill="white"/>
<path d="M21.9891 2.74609H11.0587C6.31089 2.74609 3.48047 5.57672 3.48047 10.3249V21.243C3.48047 26.0042 6.31089 28.8348 11.0587 28.8348H21.976C26.7238 28.8348 29.5542 26.0042 29.5542 21.256V10.3249C29.5673 5.57672 26.7369 2.74609 21.9891 2.74609ZM21.7412 16.7688H17.5021V21.0082C17.5021 21.543 17.0587 21.9865 16.5239 21.9865C15.9891 21.9865 15.5456 21.543 15.5456 21.0082V16.7688H11.3065C10.7717 16.7688 10.3283 16.3253 10.3283 15.7905C10.3283 15.2556 10.7717 14.8121 11.3065 14.8121H15.5456V10.5727C15.5456 10.0379 15.9891 9.59439 16.5239 9.59439C17.0587 9.59439 17.5021 10.0379 17.5021 10.5727V14.8121H21.7412C22.276 14.8121 22.7195 15.2556 22.7195 15.7905C22.7195 16.3253 22.276 16.7688 21.7412 16.7688Z" fill="#292D32"/>
<path d="M21.9891 2.74609H11.0587C6.31089 2.74609 3.48047 5.57672 3.48047 10.3249V21.243C3.48047 26.0042 6.31089 28.8348 11.0587 28.8348H21.976C26.7238 28.8348 29.5542 26.0042 29.5542 21.256V10.3249C29.5673 5.57672 26.7369 2.74609 21.9891 2.74609ZM21.7412 16.7688H17.5021V21.0082C17.5021 21.543 17.0587 21.9865 16.5239 21.9865C15.9891 21.9865 15.5456 21.543 15.5456 21.0082V16.7688H11.3065C10.7717 16.7688 10.3283 16.3253 10.3283 15.7905C10.3283 15.2556 10.7717 14.8121 11.3065 14.8121H15.5456V10.5727C15.5456 10.0379 15.9891 9.59439 16.5239 9.59439C17.0587 9.59439 17.5021 10.0379 17.5021 10.5727V14.8121H21.7412C22.276 14.8121 22.7195 15.2556 22.7195 15.7905C22.7195 16.3253 22.276 16.7688 21.7412 16.7688Z" fill="#FB1F1D"/>
<path d="M21.9891 2.74609H11.0587C6.31089 2.74609 3.48047 5.57672 3.48047 10.3249V21.243C3.48047 26.0042 6.31089 28.8348 11.0587 28.8348H21.976C26.7238 28.8348 29.5542 26.0042 29.5542 21.256V10.3249C29.5673 5.57672 26.7369 2.74609 21.9891 2.74609ZM21.7412 16.7688H17.5021V21.0082C17.5021 21.543 17.0587 21.9865 16.5239 21.9865C15.9891 21.9865 15.5456 21.543 15.5456 21.0082V16.7688H11.3065C10.7717 16.7688 10.3283 16.3253 10.3283 15.7905C10.3283 15.2556 10.7717 14.8121 11.3065 14.8121H15.5456V10.5727C15.5456 10.0379 15.9891 9.59439 16.5239 9.59439C17.0587 9.59439 17.5021 10.0379 17.5021 10.5727V14.8121H21.7412C22.276 14.8121 22.7195 15.2556 22.7195 15.7905C22.7195 16.3253 22.276 16.7688 21.7412 16.7688Z" fill="url(#paint0_radial_316_979)" fill-opacity="0.7"/>
<path d="M21.9891 2.74609H11.0587C6.31089 2.74609 3.48047 5.57672 3.48047 10.3249V21.243C3.48047 26.0042 6.31089 28.8348 11.0587 28.8348H21.976C26.7238 28.8348 29.5542 26.0042 29.5542 21.256V10.3249C29.5673 5.57672 26.7369 2.74609 21.9891 2.74609ZM21.7412 16.7688H17.5021V21.0082C17.5021 21.543 17.0587 21.9865 16.5239 21.9865C15.9891 21.9865 15.5456 21.543 15.5456 21.0082V16.7688H11.3065C10.7717 16.7688 10.3283 16.3253 10.3283 15.7905C10.3283 15.2556 10.7717 14.8121 11.3065 14.8121H15.5456V10.5727C15.5456 10.0379 15.9891 9.59439 16.5239 9.59439C17.0587 9.59439 17.5021 10.0379 17.5021 10.5727V14.8121H21.7412C22.276 14.8121 22.7195 15.2556 22.7195 15.7905C22.7195 16.3253 22.276 16.7688 21.7412 16.7688Z" fill="url(#paint1_radial_316_979)"/>
<defs>
<radialGradient id="paint0_radial_316_979" cx="0" cy="0" r="1" gradientUnits="userSpaceOnUse" gradientTransform="translate(10.3611 8.18125) rotate(51.0601) scale(21.8951 21.8925)">
<stop stop-color="white" stop-opacity="0.59"/>
<stop offset="0.697917" stop-color="white" stop-opacity="0"/>
<stop offset="1" stop-color="white" stop-opacity="0"/>
</radialGradient>
<radialGradient id="paint1_radial_316_979" cx="0" cy="0" r="1" gradientUnits="userSpaceOnUse" gradientTransform="translate(25.9825 25.5737) rotate(-93.6684) scale(22.3299 24.8735)">
<stop stop-opacity="0.23"/>
<stop offset="0.861815" stop-opacity="0"/>
</radialGradient>
</defs>
</svg>
