<svg width="54" height="54" viewBox="0 0 54 54" fill="none" xmlns="http://www.w3.org/2000/svg">
<path d="M36.4275 4.5H17.5725C9.3825 4.5 4.5 9.3825 4.5 17.5725V36.405C4.5 44.6175 9.3825 49.5 17.5725 49.5H36.405C44.595 49.5 49.4775 44.6175 49.4775 36.4275V17.5725C49.5 9.3825 44.6175 4.5 36.4275 4.5ZM36.135 25.1325L28.1925 33.075C27.855 33.4125 27.4275 33.57 27 33.57C26.5725 33.57 26.145 33.4125 25.8075 33.075L17.865 25.1325C17.2125 24.48 17.2125 23.4 17.865 22.7475C18.5175 22.095 19.5975 22.095 20.25 22.7475L27 29.4975L33.75 22.7475C34.4025 22.095 35.4825 22.095 36.135 22.7475C36.7875 23.4 36.7875 24.4575 36.135 25.1325Z" fill="#FE0655"/>
</svg>
