<svg width="87" height="19" viewBox="0 0 87 19" fill="none" xmlns="http://www.w3.org/2000/svg">
<path d="M8.06242 18.5983C7.20317 18.5983 6.42497 18.4565 5.72784 18.1728C5.0307 17.889 4.4349 17.4797 3.94042 16.9447C3.44594 16.4016 3.07711 15.7531 2.83392 14.9992L3.78235 14.6587C4.13902 15.6396 4.6943 16.3772 5.44817 16.8717C6.20205 17.3662 7.06536 17.6013 8.03811 17.577C8.95411 17.5526 9.72825 17.35 10.3605 16.969C10.9928 16.588 11.4711 16.0611 11.7953 15.3883C12.1277 14.7074 12.2939 13.9048 12.2939 12.9807C12.2939 11.5703 11.9007 10.4557 11.1144 9.63692C10.3362 8.8182 9.29457 8.40883 7.98947 8.40883C7.6409 8.40883 7.25991 8.45747 6.84649 8.55475C6.44118 8.65202 6.0683 8.78172 5.72784 8.94384L5.11987 8.11701L12.537 0.991658L12.8532 1.74554H3.53916V0.724154H13.2423V1.76985L6.50603 8.18997L6.48171 7.582C7.79492 7.27397 8.97032 7.30639 10.0079 7.67928C11.0536 8.05216 11.8764 8.70066 12.4763 9.62477C13.0842 10.5408 13.3882 11.6594 13.3882 12.9807C13.3882 14.1156 13.1653 15.1046 12.7194 15.9476C12.2736 16.7906 11.6494 17.4432 10.8469 17.9053C10.0525 18.3673 9.12434 18.5983 8.06242 18.5983Z" fill="#676767"/>
<path d="M27.2589 0.359375C28.3289 0.359375 29.3057 0.622826 30.1893 1.14973C31.0729 1.67663 31.7781 2.38187 32.305 3.26545C32.8319 4.14902 33.0954 5.12582 33.0954 6.19584V12.7619C33.0954 13.8319 32.8319 14.8087 32.305 15.6923C31.7862 16.5758 31.0851 17.2811 30.2015 17.808C29.3179 18.3349 28.3371 18.5983 27.2589 18.5983C26.1889 18.5983 25.2081 18.3308 24.3164 17.7958C23.4247 17.2608 22.7276 16.5556 22.225 15.6801L23.1004 15.1694C23.5139 15.8828 24.0894 16.4623 24.8271 16.9082C25.5647 17.354 26.3754 17.577 27.2589 17.577C28.1749 17.577 28.9937 17.354 29.7151 16.9082C30.4447 16.4623 31.0202 15.8746 31.4417 15.1451C31.8633 14.4155 32.074 13.6211 32.074 12.7619V8.33588L32.4631 8.79793C31.9524 9.74636 31.2391 10.5246 30.3231 11.1325C29.4152 11.7324 28.3938 12.0323 27.2589 12.0323C26.1889 12.0323 25.2121 11.7689 24.3285 11.242C23.445 10.715 22.7397 10.0098 22.2128 9.12623C21.6859 8.24266 21.4225 7.26586 21.4225 6.19584C21.4225 5.12582 21.6859 4.14902 22.2128 3.26545C22.7397 2.38187 23.445 1.67663 24.3285 1.14973C25.2121 0.622826 26.1889 0.359375 27.2589 0.359375ZM27.2589 1.38076C26.3672 1.38076 25.5566 1.59557 24.8271 2.0252C24.0975 2.45483 23.5179 3.03442 23.0883 3.76398C22.6587 4.49354 22.4438 5.30416 22.4438 6.19584C22.4438 7.08752 22.6587 7.89814 23.0883 8.6277C23.5179 9.35726 24.0975 9.93685 24.8271 10.3665C25.5566 10.7961 26.3672 11.0109 27.2589 11.0109C28.1506 11.0109 28.9612 10.7961 29.6908 10.3665C30.4203 9.93685 30.9999 9.35726 31.4296 8.6277C31.8592 7.89814 32.074 7.08752 32.074 6.19584C32.074 5.30416 31.8592 4.49354 31.4296 3.76398C30.9999 3.03442 30.4203 2.45483 29.6908 2.0252C28.9612 1.59557 28.1506 1.38076 27.2589 1.38076Z" fill="#676767"/>
<path d="M42.3393 0.359375C43.4093 0.359375 44.3861 0.622826 45.2697 1.14973C46.1533 1.67663 46.8585 2.38187 47.3854 3.26545C47.9123 4.14902 48.1758 5.12582 48.1758 6.19584V12.7619C48.1758 13.8319 47.9123 14.8087 47.3854 15.6923C46.8666 16.5758 46.1654 17.2811 45.2819 17.808C44.3983 18.3349 43.4174 18.5983 42.3393 18.5983C41.2693 18.5983 40.2884 18.3308 39.3968 17.7958C38.5051 17.2608 37.8079 16.5556 37.3054 15.6801L38.1808 15.1694C38.5942 15.8828 39.1698 16.4623 39.9075 16.9082C40.6451 17.354 41.4557 17.577 42.3393 17.577C43.2553 17.577 44.074 17.354 44.7955 16.9082C45.5251 16.4623 46.1006 15.8746 46.5221 15.1451C46.9436 14.4155 47.1544 13.6211 47.1544 12.7619V8.33588L47.5435 8.79793C47.0328 9.74636 46.3195 10.5246 45.4035 11.1325C44.4956 11.7324 43.4742 12.0323 42.3393 12.0323C41.2693 12.0323 40.2925 11.7689 39.4089 11.242C38.5253 10.715 37.8201 10.0098 37.2932 9.12623C36.7663 8.24266 36.5028 7.26586 36.5028 6.19584C36.5028 5.12582 36.7663 4.14902 37.2932 3.26545C37.8201 2.38187 38.5253 1.67663 39.4089 1.14973C40.2925 0.622826 41.2693 0.359375 42.3393 0.359375ZM42.3393 1.38076C41.4476 1.38076 40.637 1.59557 39.9075 2.0252C39.1779 2.45483 38.5983 3.03442 38.1687 3.76398C37.739 4.49354 37.5242 5.30416 37.5242 6.19584C37.5242 7.08752 37.739 7.89814 38.1687 8.6277C38.5983 9.35726 39.1779 9.93685 39.9075 10.3665C40.637 10.7961 41.4476 11.0109 42.3393 11.0109C43.231 11.0109 44.0416 10.7961 44.7712 10.3665C45.5007 9.93685 46.0803 9.35726 46.51 8.6277C46.9396 7.89814 47.1544 7.08752 47.1544 6.19584C47.1544 5.30416 46.9396 4.49354 46.51 3.76398C46.0803 3.03442 45.5007 2.45483 44.7712 2.0252C44.0416 1.59557 43.231 1.38076 42.3393 1.38076Z" fill="#676767"/>
<path d="M56.909 18.5983C55.9363 18.5983 55.0446 18.3592 54.234 17.8809C53.4314 17.3946 52.787 16.7501 52.3006 15.9476C51.8224 15.137 51.5832 14.2453 51.5832 13.2726V5.68515C51.5832 4.71241 51.8224 3.82478 52.3006 3.02226C52.787 2.21164 53.4314 1.5672 54.234 1.08893C55.0446 0.602561 55.9363 0.359375 56.909 0.359375C57.8818 0.359375 58.7694 0.602561 59.5719 1.08893C60.3825 1.5672 61.027 2.21164 61.5052 3.02226C61.9916 3.82478 62.2348 4.71241 62.2348 5.68515V13.2726C62.2348 14.2453 61.9916 15.137 61.5052 15.9476C61.027 16.7501 60.3825 17.3946 59.5719 17.8809C58.7694 18.3592 57.8818 18.5983 56.909 18.5983ZM56.909 17.577C57.6953 17.577 58.4127 17.3824 59.0612 16.9933C59.7178 16.6042 60.2407 16.0854 60.6298 15.4369C61.0189 14.7803 61.2134 14.0589 61.2134 13.2726V5.68515C61.2134 4.89885 61.0189 4.18145 60.6298 3.53295C60.2407 2.87635 59.7178 2.3535 59.0612 1.9644C58.4127 1.57531 57.6953 1.38076 56.909 1.38076C56.1227 1.38076 55.4013 1.57531 54.7447 1.9644C54.0962 2.3535 53.5774 2.87635 53.1883 3.53295C52.7992 4.18145 52.6046 4.89885 52.6046 5.68515V13.2726C52.6046 14.0589 52.7992 14.7803 53.1883 15.4369C53.5774 16.0854 54.0962 16.6042 54.7447 16.9933C55.4013 17.3824 56.1227 17.577 56.909 17.577Z" fill="#676767"/>
<path d="M70.5109 11.2298V10.2084H78.9008C79.0467 10.2084 79.217 10.2003 79.4115 10.1841C79.6061 10.1679 79.7925 10.1436 79.9708 10.1111C80.9841 9.91659 81.7501 9.42616 82.2689 8.63986C82.7958 7.84545 83.0593 6.95782 83.0593 5.97697C83.0593 5.32037 82.9418 4.7043 82.7067 4.12876C82.4716 3.54511 82.123 3.05063 81.661 2.64532C81.207 2.24001 80.6436 1.97251 79.9708 1.84281C79.7925 1.80228 79.6061 1.77796 79.4115 1.76985C79.217 1.75364 79.0467 1.74554 78.9008 1.74554H73.4778V0.724154H78.9008C79.071 0.724154 79.2453 0.73226 79.4237 0.748472C79.602 0.756579 79.8006 0.780897 80.0195 0.821428C80.8625 0.96734 81.5921 1.27538 82.2081 1.74554C82.8323 2.21569 83.3106 2.81555 83.6429 3.54511C83.9834 4.26656 84.1536 5.07718 84.1536 5.97697C84.1536 7.27397 83.7929 8.40073 83.0715 9.35726C82.35 10.3057 81.3327 10.8974 80.0195 11.1325C79.8006 11.1649 79.602 11.1893 79.4237 11.2055C79.2453 11.2217 79.071 11.2298 78.9008 11.2298H70.5109ZM70.5109 14.8776V13.8562H79.2656V14.8776H70.5109ZM72.4564 18.2336V0.724154H73.4778V18.2336H72.4564Z" fill="#676767"/>
<path fill-rule="evenodd" clip-rule="evenodd" d="M86.7322 4.64049L0.644381 13.9006L0.527344 12.8125L86.6152 3.55243L86.7322 4.64049Z" fill="#676767"/>
</svg>
