<svg width="136" height="127" viewBox="0 0 136 127" fill="none" xmlns="http://www.w3.org/2000/svg">
<g filter="url(#filter0_d_316_943)">
<path fill-rule="evenodd" clip-rule="evenodd" d="M55.8659 17.4761C55.0769 17.6868 54.751 17.8475 54.1231 18.3351C53.0041 19.2043 52.2265 20.7391 51.6711 23.1749C51.3438 24.6101 50.6281 28.5803 50.6858 28.6392C50.7459 28.7003 79.4488 28.7004 79.5089 28.6393C79.5813 28.5655 78.7896 24.2905 78.4414 22.8749C77.9277 20.7864 77.3178 19.5264 76.3745 18.6051C75.7896 18.0338 75.1868 17.7047 74.305 17.4749C73.4095 17.2415 72.5623 17.2402 71.678 17.4706C70.6776 17.7312 69.9972 18.1169 68.9351 19.0252C66.9252 20.7441 65.8863 21.2176 64.5818 21.0092C63.6623 20.8624 62.8292 20.3633 61.2307 19.0018C60.6926 18.5435 60.0204 18.0528 59.7367 17.9113C58.5269 17.3078 57.0978 17.1472 55.8659 17.4761ZM50.1085 31.6051C50.0882 31.6694 50.0021 32.1316 49.9171 32.6326C49.8279 33.1585 49.3723 33.5434 48.8389 33.5436L47.504 33.5439C46.2617 33.5442 44.9999 33.5854 44.6999 33.6354C42.1699 34.0575 40.843 36.9531 42.1437 39.214C42.4752 39.7903 43.285 40.5024 43.8931 40.7526C44.2411 40.8957 44.6137 40.9694 44.9899 40.9694H65.0974H85.2049C85.5812 40.9694 85.9538 40.8957 86.3017 40.7526C86.9161 40.4999 87.7204 39.7889 88.0603 39.198C89.354 36.9492 88.0139 34.0557 85.4832 33.6335C85.1896 33.5845 83.9331 33.5442 82.6908 33.5439L81.3559 33.5436C80.8225 33.5434 80.3669 33.1585 80.2777 32.6326C80.1927 32.1316 80.1066 31.6694 80.0863 31.6051C80.0322 31.4335 50.1626 31.4335 50.1085 31.6051ZM55.4235 42.5555C53.9992 42.8249 52.9032 43.4242 51.8471 44.511C51.0099 45.3726 50.5292 46.1537 50.1751 47.2278C49.9528 47.9021 49.9287 48.1073 49.9287 49.3295C49.9287 50.5517 49.9528 50.7569 50.1751 51.4312C50.5336 52.5187 51.0121 53.2882 51.8935 54.1946C52.5449 54.8646 52.8163 55.068 53.5441 55.4322C54.72 56.0206 55.3799 56.1816 56.6156 56.1816C57.8501 56.1816 58.5112 56.0206 59.6823 55.4347C60.4026 55.0742 60.6805 54.866 61.3342 54.1971C62.6625 52.8378 63.2487 51.5143 63.3326 49.6853C63.3693 48.8825 63.4076 48.6738 63.5272 48.6214C63.81 48.4976 65.7815 48.4651 66.3039 48.5756C66.6057 48.6394 66.8263 48.8991 66.8404 49.2072L66.8622 49.684C66.9461 51.5144 67.5319 52.8374 68.8606 54.1971C69.5143 54.866 69.7922 55.0742 70.5125 55.4347C71.6836 56.0206 72.3447 56.1816 73.5792 56.1816C74.8149 56.1816 75.4749 56.0206 76.6508 55.4322C77.3786 55.068 77.6499 54.8646 78.3013 54.1946C79.1844 53.2864 79.6631 52.5156 80.0176 51.4312C80.2365 50.7618 80.2623 50.543 80.2647 49.3295C80.267 48.1019 80.2442 47.9051 80.0204 47.2278C79.6651 46.1528 79.1844 45.3721 78.3477 44.511C77.2062 43.3363 75.979 42.7153 74.3669 42.4966C71.9712 42.1717 69.4024 43.3582 68.0173 45.4297C67.8197 45.7251 67.6287 45.9668 67.5927 45.9668C67.5568 45.9668 67.2039 45.9037 66.8086 45.8267C65.8876 45.6471 64.2156 45.6471 63.2945 45.8267C62.8992 45.9037 62.567 45.9668 62.5563 45.9668C62.5455 45.9668 62.3739 45.7251 62.1748 45.4297C60.6809 43.2126 57.9949 42.0691 55.4235 42.5555Z" fill="#FB1F1D"/>
<path fill-rule="evenodd" clip-rule="evenodd" d="M55.8659 17.4761C55.0769 17.6868 54.751 17.8475 54.1231 18.3351C53.0041 19.2043 52.2265 20.7391 51.6711 23.1749C51.3438 24.6101 50.6281 28.5803 50.6858 28.6392C50.7459 28.7003 79.4488 28.7004 79.5089 28.6393C79.5813 28.5655 78.7896 24.2905 78.4414 22.8749C77.9277 20.7864 77.3178 19.5264 76.3745 18.6051C75.7896 18.0338 75.1868 17.7047 74.305 17.4749C73.4095 17.2415 72.5623 17.2402 71.678 17.4706C70.6776 17.7312 69.9972 18.1169 68.9351 19.0252C66.9252 20.7441 65.8863 21.2176 64.5818 21.0092C63.6623 20.8624 62.8292 20.3633 61.2307 19.0018C60.6926 18.5435 60.0204 18.0528 59.7367 17.9113C58.5269 17.3078 57.0978 17.1472 55.8659 17.4761ZM50.1085 31.6051C50.0882 31.6694 50.0021 32.1316 49.9171 32.6326C49.8279 33.1585 49.3723 33.5434 48.8389 33.5436L47.504 33.5439C46.2617 33.5442 44.9999 33.5854 44.6999 33.6354C42.1699 34.0575 40.843 36.9531 42.1437 39.214C42.4752 39.7903 43.285 40.5024 43.8931 40.7526C44.2411 40.8957 44.6137 40.9694 44.9899 40.9694H65.0974H85.2049C85.5812 40.9694 85.9538 40.8957 86.3017 40.7526C86.9161 40.4999 87.7204 39.7889 88.0603 39.198C89.354 36.9492 88.0139 34.0557 85.4832 33.6335C85.1896 33.5845 83.9331 33.5442 82.6908 33.5439L81.3559 33.5436C80.8225 33.5434 80.3669 33.1585 80.2777 32.6326C80.1927 32.1316 80.1066 31.6694 80.0863 31.6051C80.0322 31.4335 50.1626 31.4335 50.1085 31.6051ZM55.4235 42.5555C53.9992 42.8249 52.9032 43.4242 51.8471 44.511C51.0099 45.3726 50.5292 46.1537 50.1751 47.2278C49.9528 47.9021 49.9287 48.1073 49.9287 49.3295C49.9287 50.5517 49.9528 50.7569 50.1751 51.4312C50.5336 52.5187 51.0121 53.2882 51.8935 54.1946C52.5449 54.8646 52.8163 55.068 53.5441 55.4322C54.72 56.0206 55.3799 56.1816 56.6156 56.1816C57.8501 56.1816 58.5112 56.0206 59.6823 55.4347C60.4026 55.0742 60.6805 54.866 61.3342 54.1971C62.6625 52.8378 63.2487 51.5143 63.3326 49.6853C63.3693 48.8825 63.4076 48.6738 63.5272 48.6214C63.81 48.4976 65.7815 48.4651 66.3039 48.5756C66.6057 48.6394 66.8263 48.8991 66.8404 49.2072L66.8622 49.684C66.9461 51.5144 67.5319 52.8374 68.8606 54.1971C69.5143 54.866 69.7922 55.0742 70.5125 55.4347C71.6836 56.0206 72.3447 56.1816 73.5792 56.1816C74.8149 56.1816 75.4749 56.0206 76.6508 55.4322C77.3786 55.068 77.6499 54.8646 78.3013 54.1946C79.1844 53.2864 79.6631 52.5156 80.0176 51.4312C80.2365 50.7618 80.2623 50.543 80.2647 49.3295C80.267 48.1019 80.2442 47.9051 80.0204 47.2278C79.6651 46.1528 79.1844 45.3721 78.3477 44.511C77.2062 43.3363 75.979 42.7153 74.3669 42.4966C71.9712 42.1717 69.4024 43.3582 68.0173 45.4297C67.8197 45.7251 67.6287 45.9668 67.5927 45.9668C67.5568 45.9668 67.2039 45.9037 66.8086 45.8267C65.8876 45.6471 64.2156 45.6471 63.2945 45.8267C62.8992 45.9037 62.567 45.9668 62.5563 45.9668C62.5455 45.9668 62.3739 45.7251 62.1748 45.4297C60.6809 43.2126 57.9949 42.0691 55.4235 42.5555Z" fill="url(#paint0_radial_316_943)" fill-opacity="0.7"/>
<path fill-rule="evenodd" clip-rule="evenodd" d="M55.8659 17.4761C55.0769 17.6868 54.751 17.8475 54.1231 18.3351C53.0041 19.2043 52.2265 20.7391 51.6711 23.1749C51.3438 24.6101 50.6281 28.5803 50.6858 28.6392C50.7459 28.7003 79.4488 28.7004 79.5089 28.6393C79.5813 28.5655 78.7896 24.2905 78.4414 22.8749C77.9277 20.7864 77.3178 19.5264 76.3745 18.6051C75.7896 18.0338 75.1868 17.7047 74.305 17.4749C73.4095 17.2415 72.5623 17.2402 71.678 17.4706C70.6776 17.7312 69.9972 18.1169 68.9351 19.0252C66.9252 20.7441 65.8863 21.2176 64.5818 21.0092C63.6623 20.8624 62.8292 20.3633 61.2307 19.0018C60.6926 18.5435 60.0204 18.0528 59.7367 17.9113C58.5269 17.3078 57.0978 17.1472 55.8659 17.4761ZM50.1085 31.6051C50.0882 31.6694 50.0021 32.1316 49.9171 32.6326C49.8279 33.1585 49.3723 33.5434 48.8389 33.5436L47.504 33.5439C46.2617 33.5442 44.9999 33.5854 44.6999 33.6354C42.1699 34.0575 40.843 36.9531 42.1437 39.214C42.4752 39.7903 43.285 40.5024 43.8931 40.7526C44.2411 40.8957 44.6137 40.9694 44.9899 40.9694H65.0974H85.2049C85.5812 40.9694 85.9538 40.8957 86.3017 40.7526C86.9161 40.4999 87.7204 39.7889 88.0603 39.198C89.354 36.9492 88.0139 34.0557 85.4832 33.6335C85.1896 33.5845 83.9331 33.5442 82.6908 33.5439L81.3559 33.5436C80.8225 33.5434 80.3669 33.1585 80.2777 32.6326C80.1927 32.1316 80.1066 31.6694 80.0863 31.6051C80.0322 31.4335 50.1626 31.4335 50.1085 31.6051ZM55.4235 42.5555C53.9992 42.8249 52.9032 43.4242 51.8471 44.511C51.0099 45.3726 50.5292 46.1537 50.1751 47.2278C49.9528 47.9021 49.9287 48.1073 49.9287 49.3295C49.9287 50.5517 49.9528 50.7569 50.1751 51.4312C50.5336 52.5187 51.0121 53.2882 51.8935 54.1946C52.5449 54.8646 52.8163 55.068 53.5441 55.4322C54.72 56.0206 55.3799 56.1816 56.6156 56.1816C57.8501 56.1816 58.5112 56.0206 59.6823 55.4347C60.4026 55.0742 60.6805 54.866 61.3342 54.1971C62.6625 52.8378 63.2487 51.5143 63.3326 49.6853C63.3693 48.8825 63.4076 48.6738 63.5272 48.6214C63.81 48.4976 65.7815 48.4651 66.3039 48.5756C66.6057 48.6394 66.8263 48.8991 66.8404 49.2072L66.8622 49.684C66.9461 51.5144 67.5319 52.8374 68.8606 54.1971C69.5143 54.866 69.7922 55.0742 70.5125 55.4347C71.6836 56.0206 72.3447 56.1816 73.5792 56.1816C74.8149 56.1816 75.4749 56.0206 76.6508 55.4322C77.3786 55.068 77.6499 54.8646 78.3013 54.1946C79.1844 53.2864 79.6631 52.5156 80.0176 51.4312C80.2365 50.7618 80.2623 50.543 80.2647 49.3295C80.267 48.1019 80.2442 47.9051 80.0204 47.2278C79.6651 46.1528 79.1844 45.3721 78.3477 44.511C77.2062 43.3363 75.979 42.7153 74.3669 42.4966C71.9712 42.1717 69.4024 43.3582 68.0173 45.4297C67.8197 45.7251 67.6287 45.9668 67.5927 45.9668C67.5568 45.9668 67.2039 45.9037 66.8086 45.8267C65.8876 45.6471 64.2156 45.6471 63.2945 45.8267C62.8992 45.9037 62.567 45.9668 62.5563 45.9668C62.5455 45.9668 62.3739 45.7251 62.1748 45.4297C60.6809 43.2126 57.9949 42.0691 55.4235 42.5555Z" fill="url(#paint1_radial_316_943)"/>
</g>
<defs>
<filter id="filter0_d_316_943" x="0.823038" y="0.41041" width="134.183" height="126.14" filterUnits="userSpaceOnUse" color-interpolation-filters="sRGB">
<feFlood flood-opacity="0" result="BackgroundImageFix"/>
<feColorMatrix in="SourceAlpha" type="matrix" values="0 0 0 0 0 0 0 0 0 0 0 0 0 0 0 0 0 0 127 0" result="hardAlpha"/>
<feOffset dx="2.81474" dy="26.74"/>
<feGaussianBlur stdDeviation="21.8142"/>
<feColorMatrix type="matrix" values="0 0 0 0 0.980392 0 0 0 0 0.14902 0 0 0 0 0.141176 0 0 0 0.5 0"/>
<feBlend mode="normal" in2="BackgroundImageFix" result="effect1_dropShadow_316_943"/>
<feBlend mode="normal" in="SourceGraphic" in2="effect1_dropShadow_316_943" result="shape"/>
</filter>
<radialGradient id="paint0_radial_316_943" cx="0" cy="0" r="1" gradientUnits="userSpaceOnUse" gradientTransform="translate(54.0195 25.3994) rotate(45.7042) scale(35.4622 36.2554)">
<stop stop-color="white" stop-opacity="0.59"/>
<stop offset="0.697917" stop-color="white" stop-opacity="0"/>
<stop offset="1" stop-color="white" stop-opacity="0"/>
</radialGradient>
<radialGradient id="paint1_radial_316_943" cx="0" cy="0" r="1" gradientUnits="userSpaceOnUse" gradientTransform="translate(82.1328 51.3213) rotate(-94.4268) scale(33.3118 44.7219)">
<stop stop-opacity="0.23"/>
<stop offset="0.861815" stop-opacity="0"/>
</radialGradient>
</defs>
</svg>
